solid OpenSCAD_Model
  facet normal -0 0 1
    outer loop
      vertex 0 165 38.5
      vertex 155 0 38.5
      vertex 155 165 38.5
    endloop
  endfacet
  facet normal 0 0 1
    outer loop
      vertex 155 0 38.5
      vertex 0 165 38.5
      vertex 0 0 38.5
    endloop
  endfacet
  facet normal 0 0 -1
    outer loop
      vertex 0 0 0
      vertex 155 165 0
      vertex 155 0 0
    endloop
  endfacet
  facet normal -0 0 -1
    outer loop
      vertex 155 165 0
      vertex 0 0 0
      vertex 0 165 0
    endloop
  endfacet
  facet normal 0 -1 0
    outer loop
      vertex 0 0 0
      vertex 155 0 38.5
      vertex 0 0 38.5
    endloop
  endfacet
  facet normal 0 -1 -0
    outer loop
      vertex 155 0 38.5
      vertex 0 0 0
      vertex 155 0 0
    endloop
  endfacet
  facet normal 1 -0 0
    outer loop
      vertex 155 0 38.5
      vertex 155 165 0
      vertex 155 165 38.5
    endloop
  endfacet
  facet normal 1 0 0
    outer loop
      vertex 155 165 0
      vertex 155 0 38.5
      vertex 155 0 0
    endloop
  endfacet
  facet normal 0 1 -0
    outer loop
      vertex 155 165 0
      vertex 0 165 38.5
      vertex 155 165 38.5
    endloop
  endfacet
  facet normal 0 1 0
    outer loop
      vertex 0 165 38.5
      vertex 155 165 0
      vertex 0 165 0
    endloop
  endfacet
  facet normal -1 0 0
    outer loop
      vertex 0 0 0
      vertex 0 165 38.5
      vertex 0 165 0
    endloop
  endfacet
  facet normal -1 -0 0
    outer loop
      vertex 0 165 38.5
      vertex 0 0 0
      vertex 0 0 38.5
    endloop
  endfacet
endsolid OpenSCAD_Model
