solid OpenSCAD_Model
  facet normal 0 1 -0
    outer loop
      vertex 0.964293 7.94167 0
      vertex 0.333638 7.94167 4
      vertex 0.964293 7.94167 4
    endloop
  endfacet
  facet normal 0 1 0
    outer loop
      vertex 0.333638 7.94167 4
      vertex 0.964293 7.94167 0
      vertex 0.333638 7.94167 0
    endloop
  endfacet
  facet normal 0 -1 0
    outer loop
      vertex 0.333638 -7.94167 0
      vertex 0.964293 -7.94167 4
      vertex 0.333638 -7.94167 4
    endloop
  endfacet
  facet normal 0 -1 -0
    outer loop
      vertex 0.964293 -7.94167 4
      vertex 0.333638 -7.94167 0
      vertex 0.964293 -7.94167 0
    endloop
  endfacet
  facet normal 0.663122 0.748511 -0
    outer loop
      vertex 5.98809 5.30498 0
      vertex 4.54452 6.58387 4
      vertex 5.98809 5.30498 4
    endloop
  endfacet
  facet normal 0.663122 0.748511 0
    outer loop
      vertex 4.54452 6.58387 4
      vertex 5.98809 5.30498 0
      vertex 4.54452 6.58387 0
    endloop
  endfacet
  facet normal 0 0 1
    outer loop
      vertex 4.54452 -6.58387 4
      vertex 1.56295 -4.15823 4
      vertex 2.83684 -7.48013 4
    endloop
  endfacet
  facet normal 0 0 1
    outer loop
      vertex 1.56295 -4.15823 4
      vertex 0.964293 -7.94167 4
      vertex 2.83684 -7.48013 4
    endloop
  endfacet
  facet normal 0 -0 1
    outer loop
      vertex 0.964293 -7.94167 4
      vertex 1.56295 -4.15823 4
      vertex 0.333638 -7.94167 4
    endloop
  endfacet
  facet normal -0 0 1
    outer loop
      vertex 46 5 4
      vertex 50 -5 4
      vertex 50 5 4
    endloop
  endfacet
  facet normal 0 0 1
    outer loop
      vertex 46 5 4
      vertex 46 -5 4
      vertex 50 -5 4
    endloop
  endfacet
  facet normal 0 0 1
    outer loop
      vertex 46 5 4
      vertex 22 0 4
      vertex 46 -5 4
    endloop
  endfacet
  facet normal 0 0 1
    outer loop
      vertex 46 5 4
      vertex 21.9021 0.618033 4
      vertex 22 0 4
    endloop
  endfacet
  facet normal 0 0 1
    outer loop
      vertex 46 5 4
      vertex 21.618 1.17557 4
      vertex 21.9021 0.618033 4
    endloop
  endfacet
  facet normal 0 0 1
    outer loop
      vertex 46 5 4
      vertex 21.1756 1.61803 4
      vertex 21.618 1.17557 4
    endloop
  endfacet
  facet normal 0 0 1
    outer loop
      vertex 46 5 4
      vertex 20.618 1.90211 4
      vertex 21.1756 1.61803 4
    endloop
  endfacet
  facet normal 0 0 1
    outer loop
      vertex 46 5 4
      vertex 20 2 4
      vertex 20.618 1.90211 4
    endloop
  endfacet
  facet normal 0 0 1
    outer loop
      vertex 18.0979 0.618033 4
      vertex 6.1986 5 4
      vertex 18 0 4
    endloop
  endfacet
  facet normal 0 0 1
    outer loop
      vertex 18.382 1.17557 4
      vertex 6.1986 5 4
      vertex 18.0979 0.618033 4
    endloop
  endfacet
  facet normal 0 0 1
    outer loop
      vertex 18.8244 1.61803 4
      vertex 6.1986 5 4
      vertex 18.382 1.17557 4
    endloop
  endfacet
  facet normal 0 0 1
    outer loop
      vertex 19.382 1.90211 4
      vertex 6.1986 5 4
      vertex 18.8244 1.61803 4
    endloop
  endfacet
  facet normal 0 0 1
    outer loop
      vertex 20 2 4
      vertex 6.1986 5 4
      vertex 19.382 1.90211 4
    endloop
  endfacet
  facet normal -0 0 1
    outer loop
      vertex 6.1986 5 4
      vertex 20 2 4
      vertex 46 5 4
    endloop
  endfacet
  facet normal -0 0 1
    outer loop
      vertex 21.9021 -0.618033 4
      vertex 46 -5 4
      vertex 22 0 4
    endloop
  endfacet
  facet normal -0 0 1
    outer loop
      vertex 21.618 -1.17557 4
      vertex 46 -5 4
      vertex 21.9021 -0.618033 4
    endloop
  endfacet
  facet normal -0 0 1
    outer loop
      vertex 21.1756 -1.61803 4
      vertex 46 -5 4
      vertex 21.618 -1.17557 4
    endloop
  endfacet
  facet normal -0 0 1
    outer loop
      vertex 20.618 -1.90211 4
      vertex 46 -5 4
      vertex 21.1756 -1.61803 4
    endloop
  endfacet
  facet normal -0 0 1
    outer loop
      vertex 20 -2 4
      vertex 46 -5 4
      vertex 20.618 -1.90211 4
    endloop
  endfacet
  facet normal 0 0 1
    outer loop
      vertex 6.1986 -5 4
      vertex 18 0 4
      vertex 6.1986 5 4
    endloop
  endfacet
  facet normal 0 0 1
    outer loop
      vertex 18 0 4
      vertex 6.1986 -5 4
      vertex 18.0979 -0.618033 4
    endloop
  endfacet
  facet normal 0 0 1
    outer loop
      vertex 18.0979 -0.618033 4
      vertex 6.1986 -5 4
      vertex 18.382 -1.17557 4
    endloop
  endfacet
  facet normal 0 0 1
    outer loop
      vertex 20 -2 4
      vertex 6.1986 -5 4
      vertex 46 -5 4
    endloop
  endfacet
  facet normal 0 0 1
    outer loop
      vertex 19.382 -1.90211 4
      vertex 6.1986 -5 4
      vertex 20 -2 4
    endloop
  endfacet
  facet normal 0 0 1
    outer loop
      vertex 18.8244 -1.61803 4
      vertex 6.1986 -5 4
      vertex 19.382 -1.90211 4
    endloop
  endfacet
  facet normal 0 0 1
    outer loop
      vertex 18.382 -1.17557 4
      vertex 6.1986 -5 4
      vertex 18.8244 -1.61803 4
    endloop
  endfacet
  facet normal 0 0 1
    outer loop
      vertex 1.56295 4.15823 4
      vertex 6.1986 5 4
      vertex 5.98809 5.30498 4
    endloop
  endfacet
  facet normal 0 0 1
    outer loop
      vertex 6.1986 5 4
      vertex 2 0 4
      vertex 6.1986 -5 4
    endloop
  endfacet
  facet normal 0 0 1
    outer loop
      vertex 1.56295 4.15823 4
      vertex 5.98809 5.30498 4
      vertex 4.54452 6.58387 4
    endloop
  endfacet
  facet normal -0 0 1
    outer loop
      vertex 1.56295 -4.15823 4
      vertex 6.1986 -5 4
      vertex 2 0 4
    endloop
  endfacet
  facet normal 0 0 1
    outer loop
      vertex 1.56295 4.15823 4
      vertex 4.54452 6.58387 4
      vertex 2.83684 7.48013 4
    endloop
  endfacet
  facet normal 0 0 1
    outer loop
      vertex 6.1986 -5 4
      vertex 1.56295 -4.15823 4
      vertex 5.98809 -5.30498 4
    endloop
  endfacet
  facet normal 0 0 1
    outer loop
      vertex 5.98809 -5.30498 4
      vertex 1.56295 -4.15823 4
      vertex 4.54452 -6.58387 4
    endloop
  endfacet
  facet normal 0 0 1
    outer loop
      vertex 6.1986 5 4
      vertex 1.56295 4.15823 4
      vertex 2 0 4
    endloop
  endfacet
  facet normal 0 0 1
    outer loop
      vertex 0.964293 7.94167 4
      vertex 1.56295 4.15823 4
      vertex 2.83684 7.48013 4
    endloop
  endfacet
  facet normal 0 0 1
    outer loop
      vertex 1.56295 4.15823 4
      vertex 0.964293 7.94167 4
      vertex 0.333638 7.94167 4
    endloop
  endfacet
  facet normal -0 0 -1
    outer loop
      vertex 4.54452 6.58387 0
      vertex 1.56295 4.15823 0
      vertex 2.83684 7.48013 0
    endloop
  endfacet
  facet normal 0 0 -1
    outer loop
      vertex 1.56295 4.15823 0
      vertex 0.964293 7.94167 0
      vertex 2.83684 7.48013 0
    endloop
  endfacet
  facet normal -0 -0 -1
    outer loop
      vertex 0.964293 7.94167 0
      vertex 1.56295 4.15823 0
      vertex 0.333638 7.94167 0
    endloop
  endfacet
  facet normal 0 0 -1
    outer loop
      vertex 46 -5 0
      vertex 22 0 0
      vertex 46 5 0
    endloop
  endfacet
  facet normal 0 0 -1
    outer loop
      vertex 46 -5 0
      vertex 21.9021 -0.618033 0
      vertex 22 0 0
    endloop
  endfacet
  facet normal 0 0 -1
    outer loop
      vertex 46 -5 0
      vertex 21.618 -1.17557 0
      vertex 21.9021 -0.618033 0
    endloop
  endfacet
  facet normal 0 0 -1
    outer loop
      vertex 46 -5 0
      vertex 21.1756 -1.61803 0
      vertex 21.618 -1.17557 0
    endloop
  endfacet
  facet normal 0 0 -1
    outer loop
      vertex 46 -5 0
      vertex 20.618 -1.90211 0
      vertex 21.1756 -1.61803 0
    endloop
  endfacet
  facet normal 0 0 -1
    outer loop
      vertex 46 -5 0
      vertex 20 -2 0
      vertex 20.618 -1.90211 0
    endloop
  endfacet
  facet normal -0 0 -1
    outer loop
      vertex 18.0979 -0.618033 0
      vertex 6.1986 -5 0
      vertex 18 0 0
    endloop
  endfacet
  facet normal -0 0 -1
    outer loop
      vertex 18.382 -1.17557 0
      vertex 6.1986 -5 0
      vertex 18.0979 -0.618033 0
    endloop
  endfacet
  facet normal -0 0 -1
    outer loop
      vertex 18.8244 -1.61803 0
      vertex 6.1986 -5 0
      vertex 18.382 -1.17557 0
    endloop
  endfacet
  facet normal -0 0 -1
    outer loop
      vertex 19.382 -1.90211 0
      vertex 6.1986 -5 0
      vertex 18.8244 -1.61803 0
    endloop
  endfacet
  facet normal -0 0 -1
    outer loop
      vertex 20 -2 0
      vertex 6.1986 -5 0
      vertex 19.382 -1.90211 0
    endloop
  endfacet
  facet normal 0 0 -1
    outer loop
      vertex 6.1986 -5 0
      vertex 20 -2 0
      vertex 46 -5 0
    endloop
  endfacet
  facet normal 0 0 -1
    outer loop
      vertex 46 -5 0
      vertex 50 -8 0
      vertex 46 -8 0
    endloop
  endfacet
  facet normal 0 0 -1
    outer loop
      vertex 50 -8 0
      vertex 46 -5 0
      vertex 50 8 0
    endloop
  endfacet
  facet normal 0 0 -1
    outer loop
      vertex 46 5 0
      vertex 50 8 0
      vertex 46 -5 0
    endloop
  endfacet
  facet normal -0 0 -1
    outer loop
      vertex 50 8 0
      vertex 46 5 0
      vertex 46 8 0
    endloop
  endfacet
  facet normal 0 0 -1
    outer loop
      vertex 21.9021 0.618033 0
      vertex 46 5 0
      vertex 22 0 0
    endloop
  endfacet
  facet normal 0 0 -1
    outer loop
      vertex 21.618 1.17557 0
      vertex 46 5 0
      vertex 21.9021 0.618033 0
    endloop
  endfacet
  facet normal 0 0 -1
    outer loop
      vertex 21.1756 1.61803 0
      vertex 46 5 0
      vertex 21.618 1.17557 0
    endloop
  endfacet
  facet normal 0 0 -1
    outer loop
      vertex 20.618 1.90211 0
      vertex 46 5 0
      vertex 21.1756 1.61803 0
    endloop
  endfacet
  facet normal 0 0 -1
    outer loop
      vertex 20 2 0
      vertex 46 5 0
      vertex 20.618 1.90211 0
    endloop
  endfacet
  facet normal 0 0 -1
    outer loop
      vertex 6.1986 5 0
      vertex 18 0 0
      vertex 6.1986 -5 0
    endloop
  endfacet
  facet normal 0 0 -1
    outer loop
      vertex 18 0 0
      vertex 6.1986 5 0
      vertex 18.0979 0.618033 0
    endloop
  endfacet
  facet normal 0 0 -1
    outer loop
      vertex 18.0979 0.618033 0
      vertex 6.1986 5 0
      vertex 18.382 1.17557 0
    endloop
  endfacet
  facet normal 0 0 -1
    outer loop
      vertex 20 2 0
      vertex 6.1986 5 0
      vertex 46 5 0
    endloop
  endfacet
  facet normal 0 0 -1
    outer loop
      vertex 19.382 1.90211 0
      vertex 6.1986 5 0
      vertex 20 2 0
    endloop
  endfacet
  facet normal 0 0 -1
    outer loop
      vertex 18.8244 1.61803 0
      vertex 6.1986 5 0
      vertex 19.382 1.90211 0
    endloop
  endfacet
  facet normal 0 0 -1
    outer loop
      vertex 18.382 1.17557 0
      vertex 6.1986 5 0
      vertex 18.8244 1.61803 0
    endloop
  endfacet
  facet normal 0 0 -1
    outer loop
      vertex 1.56295 -4.15823 0
      vertex 6.1986 -5 0
      vertex 5.98809 -5.30498 0
    endloop
  endfacet
  facet normal 0 0 -1
    outer loop
      vertex 6.1986 -5 0
      vertex 2 0 0
      vertex 6.1986 5 0
    endloop
  endfacet
  facet normal 0 0 -1
    outer loop
      vertex 1.56295 -4.15823 0
      vertex 5.98809 -5.30498 0
      vertex 4.54452 -6.58387 0
    endloop
  endfacet
  facet normal 0 0 -1
    outer loop
      vertex 1.56295 4.15823 0
      vertex 6.1986 5 0
      vertex 2 0 0
    endloop
  endfacet
  facet normal 0 0 -1
    outer loop
      vertex 1.56295 -4.15823 0
      vertex 4.54452 -6.58387 0
      vertex 2.83684 -7.48013 0
    endloop
  endfacet
  facet normal -0 0 -1
    outer loop
      vertex 6.1986 5 0
      vertex 1.56295 4.15823 0
      vertex 5.98809 5.30498 0
    endloop
  endfacet
  facet normal -0 0 -1
    outer loop
      vertex 5.98809 5.30498 0
      vertex 1.56295 4.15823 0
      vertex 4.54452 6.58387 0
    endloop
  endfacet
  facet normal 0 0 -1
    outer loop
      vertex 6.1986 -5 0
      vertex 1.56295 -4.15823 0
      vertex 2 0 0
    endloop
  endfacet
  facet normal 0 0 -1
    outer loop
      vertex 0.964293 -7.94167 0
      vertex 1.56295 -4.15823 0
      vertex 2.83684 -7.48013 0
    endloop
  endfacet
  facet normal 0 0 -1
    outer loop
      vertex 1.56295 -4.15823 0
      vertex 0.964293 -7.94167 0
      vertex 0.333638 -7.94167 0
    endloop
  endfacet
  facet normal 0.822987 0.56806 0
    outer loop
      vertex 6.1986 5 4
      vertex 5.98809 5.30498 0
      vertex 5.98809 5.30498 4
    endloop
  endfacet
  facet normal 0.822987 0.56806 0
    outer loop
      vertex 5.98809 5.30498 0
      vertex 6.1986 5 4
      vertex 6.1986 5 0
    endloop
  endfacet
  facet normal 0.239315 0.970942 -0
    outer loop
      vertex 2.83684 7.48013 0
      vertex 0.964293 7.94167 4
      vertex 2.83684 7.48013 4
    endloop
  endfacet
  facet normal 0.239315 0.970942 0
    outer loop
      vertex 0.964293 7.94167 4
      vertex 2.83684 7.48013 0
      vertex 0.964293 7.94167 0
    endloop
  endfacet
  facet normal 0.464723 0.885456 -0
    outer loop
      vertex 4.54452 6.58387 0
      vertex 2.83684 7.48013 4
      vertex 4.54452 6.58387 4
    endloop
  endfacet
  facet normal 0.464723 0.885456 0
    outer loop
      vertex 2.83684 7.48013 4
      vertex 4.54452 6.58387 0
      vertex 2.83684 7.48013 0
    endloop
  endfacet
  facet normal 0.663122 -0.748511 0
    outer loop
      vertex 4.54452 -6.58387 0
      vertex 5.98809 -5.30498 4
      vertex 4.54452 -6.58387 4
    endloop
  endfacet
  facet normal 0.663122 -0.748511 0
    outer loop
      vertex 5.98809 -5.30498 4
      vertex 4.54452 -6.58387 0
      vertex 5.98809 -5.30498 0
    endloop
  endfacet
  facet normal 0.822987 -0.56806 0
    outer loop
      vertex 5.98809 -5.30498 4
      vertex 6.1986 -5 0
      vertex 6.1986 -5 4
    endloop
  endfacet
  facet normal 0.822987 -0.56806 0
    outer loop
      vertex 6.1986 -5 0
      vertex 5.98809 -5.30498 4
      vertex 5.98809 -5.30498 0
    endloop
  endfacet
  facet normal 0.239315 -0.970942 0
    outer loop
      vertex 0.964293 -7.94167 0
      vertex 2.83684 -7.48013 4
      vertex 0.964293 -7.94167 4
    endloop
  endfacet
  facet normal 0.239315 -0.970942 0
    outer loop
      vertex 2.83684 -7.48013 4
      vertex 0.964293 -7.94167 0
      vertex 2.83684 -7.48013 0
    endloop
  endfacet
  facet normal 0.464723 -0.885456 0
    outer loop
      vertex 2.83684 -7.48013 0
      vertex 4.54452 -6.58387 4
      vertex 2.83684 -7.48013 4
    endloop
  endfacet
  facet normal 0.464723 -0.885456 0
    outer loop
      vertex 4.54452 -6.58387 4
      vertex 2.83684 -7.48013 0
      vertex 4.54452 -6.58387 0
    endloop
  endfacet
  facet normal 1 0 0
    outer loop
      vertex 50 -5 9
      vertex 50 -8 9
      vertex 50 -5 4
    endloop
  endfacet
  facet normal 1 0 0
    outer loop
      vertex 50 5 4
      vertex 50 8 9
      vertex 50 5 9
    endloop
  endfacet
  facet normal 1 0 0
    outer loop
      vertex 50 8 9
      vertex 50 5 4
      vertex 50 8 0
    endloop
  endfacet
  facet normal 1 -0 0
    outer loop
      vertex 50 -5 4
      vertex 50 8 0
      vertex 50 5 4
    endloop
  endfacet
  facet normal 1 0 0
    outer loop
      vertex 50 -5 4
      vertex 50 -8 0
      vertex 50 8 0
    endloop
  endfacet
  facet normal 1 0 0
    outer loop
      vertex 50 -8 0
      vertex 50 -5 4
      vertex 50 -8 9
    endloop
  endfacet
  facet normal 0 1 -0
    outer loop
      vertex 46 5 0
      vertex 6.1986 5 4
      vertex 46 5 4
    endloop
  endfacet
  facet normal 0 1 0
    outer loop
      vertex 6.1986 5 4
      vertex 46 5 0
      vertex 6.1986 5 0
    endloop
  endfacet
  facet normal 0 -1 0
    outer loop
      vertex 46 5 9
      vertex 48 5 8
      vertex 50 5 9
    endloop
  endfacet
  facet normal 0 -1 0
    outer loop
      vertex 46 5 9
      vertex 47.691 5 7.95106
      vertex 48 5 8
    endloop
  endfacet
  facet normal 0 -1 0
    outer loop
      vertex 46 5 9
      vertex 47.4122 5 7.80902
      vertex 47.691 5 7.95106
    endloop
  endfacet
  facet normal 0 -1 0
    outer loop
      vertex 46 5 9
      vertex 47.191 5 7.58778
      vertex 47.4122 5 7.80902
    endloop
  endfacet
  facet normal 0 -1 0
    outer loop
      vertex 46 5 9
      vertex 47.0489 5 7.30902
      vertex 47.191 5 7.58778
    endloop
  endfacet
  facet normal 0 -1 0
    outer loop
      vertex 46 5 9
      vertex 47 5 7
      vertex 47.0489 5 7.30902
    endloop
  endfacet
  facet normal 0 -1 0
    outer loop
      vertex 46 5 4
      vertex 47 5 7
      vertex 46 5 9
    endloop
  endfacet
  facet normal 0 -1 -0
    outer loop
      vertex 47.691 5 6.04894
      vertex 46 5 4
      vertex 48 5 6
    endloop
  endfacet
  facet normal 0 -1 -0
    outer loop
      vertex 47.4122 5 6.19098
      vertex 46 5 4
      vertex 47.691 5 6.04894
    endloop
  endfacet
  facet normal 0 -1 -0
    outer loop
      vertex 47.191 5 6.41221
      vertex 46 5 4
      vertex 47.4122 5 6.19098
    endloop
  endfacet
  facet normal 0 -1 -0
    outer loop
      vertex 47.0489 5 6.69098
      vertex 46 5 4
      vertex 47.191 5 6.41221
    endloop
  endfacet
  facet normal 0 -1 -0
    outer loop
      vertex 47 5 7
      vertex 46 5 4
      vertex 47.0489 5 6.69098
    endloop
  endfacet
  facet normal 0 -1 0
    outer loop
      vertex 48.309 5 7.95106
      vertex 50 5 9
      vertex 48 5 8
    endloop
  endfacet
  facet normal 0 -1 0
    outer loop
      vertex 48.5878 5 7.80902
      vertex 50 5 9
      vertex 48.309 5 7.95106
    endloop
  endfacet
  facet normal 0 -1 0
    outer loop
      vertex 48.809 5 7.58778
      vertex 50 5 9
      vertex 48.5878 5 7.80902
    endloop
  endfacet
  facet normal 0 -1 0
    outer loop
      vertex 48.9511 5 7.30902
      vertex 50 5 9
      vertex 48.809 5 7.58778
    endloop
  endfacet
  facet normal 0 -1 0
    outer loop
      vertex 49 5 7
      vertex 50 5 9
      vertex 48.9511 5 7.30902
    endloop
  endfacet
  facet normal 0 -1 0
    outer loop
      vertex 50 5 4
      vertex 49 5 7
      vertex 48.9511 5 6.69098
    endloop
  endfacet
  facet normal 0 -1 0
    outer loop
      vertex 50 5 4
      vertex 48 5 6
      vertex 46 5 4
    endloop
  endfacet
  facet normal 0 -1 0
    outer loop
      vertex 48 5 6
      vertex 50 5 4
      vertex 48.309 5 6.04894
    endloop
  endfacet
  facet normal 0 -1 0
    outer loop
      vertex 49 5 7
      vertex 50 5 4
      vertex 50 5 9
    endloop
  endfacet
  facet normal 0 -1 0
    outer loop
      vertex 48.809 5 6.41221
      vertex 50 5 4
      vertex 48.9511 5 6.69098
    endloop
  endfacet
  facet normal 0 -1 0
    outer loop
      vertex 48.5878 5 6.19098
      vertex 50 5 4
      vertex 48.809 5 6.41221
    endloop
  endfacet
  facet normal 0 -1 0
    outer loop
      vertex 48.309 5 6.04894
      vertex 50 5 4
      vertex 48.5878 5 6.19098
    endloop
  endfacet
  facet normal 0 1 0
    outer loop
      vertex 50 -5 9
      vertex 48 -5 8
      vertex 46 -5 9
    endloop
  endfacet
  facet normal 0 1 0
    outer loop
      vertex 50 -5 9
      vertex 48.309 -5 7.95106
      vertex 48 -5 8
    endloop
  endfacet
  facet normal 0 1 0
    outer loop
      vertex 50 -5 9
      vertex 48.5878 -5 7.80902
      vertex 48.309 -5 7.95106
    endloop
  endfacet
  facet normal 0 1 0
    outer loop
      vertex 50 -5 9
      vertex 48.809 -5 7.58778
      vertex 48.5878 -5 7.80902
    endloop
  endfacet
  facet normal 0 1 0
    outer loop
      vertex 50 -5 9
      vertex 48.9511 -5 7.30902
      vertex 48.809 -5 7.58778
    endloop
  endfacet
  facet normal 0 1 0
    outer loop
      vertex 50 -5 9
      vertex 49 -5 7
      vertex 48.9511 -5 7.30902
    endloop
  endfacet
  facet normal 0 1 -0
    outer loop
      vertex 50 -5 4
      vertex 49 -5 7
      vertex 50 -5 9
    endloop
  endfacet
  facet normal 0 1 0
    outer loop
      vertex 48.309 -5 6.04894
      vertex 50 -5 4
      vertex 48 -5 6
    endloop
  endfacet
  facet normal 0 1 0
    outer loop
      vertex 48.5878 -5 6.19098
      vertex 50 -5 4
      vertex 48.309 -5 6.04894
    endloop
  endfacet
  facet normal 0 1 0
    outer loop
      vertex 48.809 -5 6.41221
      vertex 50 -5 4
      vertex 48.5878 -5 6.19098
    endloop
  endfacet
  facet normal 0 1 0
    outer loop
      vertex 48.9511 -5 6.69098
      vertex 50 -5 4
      vertex 48.809 -5 6.41221
    endloop
  endfacet
  facet normal 0 1 0
    outer loop
      vertex 49 -5 7
      vertex 50 -5 4
      vertex 48.9511 -5 6.69098
    endloop
  endfacet
  facet normal 0 1 -0
    outer loop
      vertex 47.691 -5 7.95106
      vertex 46 -5 9
      vertex 48 -5 8
    endloop
  endfacet
  facet normal 0 1 -0
    outer loop
      vertex 47.4122 -5 7.80902
      vertex 46 -5 9
      vertex 47.691 -5 7.95106
    endloop
  endfacet
  facet normal 0 1 -0
    outer loop
      vertex 47.191 -5 7.58778
      vertex 46 -5 9
      vertex 47.4122 -5 7.80902
    endloop
  endfacet
  facet normal 0 1 -0
    outer loop
      vertex 47.0489 -5 7.30902
      vertex 46 -5 9
      vertex 47.191 -5 7.58778
    endloop
  endfacet
  facet normal 0 1 -0
    outer loop
      vertex 47 -5 7
      vertex 46 -5 9
      vertex 47.0489 -5 7.30902
    endloop
  endfacet
  facet normal 0 1 0
    outer loop
      vertex 46 -5 4
      vertex 47 -5 7
      vertex 47.0489 -5 6.69098
    endloop
  endfacet
  facet normal 0 1 0
    outer loop
      vertex 46 -5 4
      vertex 48 -5 6
      vertex 50 -5 4
    endloop
  endfacet
  facet normal 0 1 0
    outer loop
      vertex 48 -5 6
      vertex 46 -5 4
      vertex 47.691 -5 6.04894
    endloop
  endfacet
  facet normal 0 1 0
    outer loop
      vertex 47 -5 7
      vertex 46 -5 4
      vertex 46 -5 9
    endloop
  endfacet
  facet normal 0 1 0
    outer loop
      vertex 47.191 -5 6.41221
      vertex 46 -5 4
      vertex 47.0489 -5 6.69098
    endloop
  endfacet
  facet normal 0 1 0
    outer loop
      vertex 47.4122 -5 6.19098
      vertex 46 -5 4
      vertex 47.191 -5 6.41221
    endloop
  endfacet
  facet normal 0 1 0
    outer loop
      vertex 47.691 -5 6.04894
      vertex 46 -5 4
      vertex 47.4122 -5 6.19098
    endloop
  endfacet
  facet normal 0 -1 0
    outer loop
      vertex 6.1986 -5 0
      vertex 46 -5 4
      vertex 6.1986 -5 4
    endloop
  endfacet
  facet normal 0 -1 -0
    outer loop
      vertex 46 -5 4
      vertex 6.1986 -5 0
      vertex 46 -5 0
    endloop
  endfacet
  facet normal -0.994522 -0.104529 0
    outer loop
      vertex 2 0 0
      vertex 1.56295 4.15823 4
      vertex 1.56295 4.15823 0
    endloop
  endfacet
  facet normal -0.994522 -0.104529 0
    outer loop
      vertex 1.56295 4.15823 4
      vertex 2 0 0
      vertex 2 0 4
    endloop
  endfacet
  facet normal -0.951057 -0.309016 0
    outer loop
      vertex 1.56295 4.15823 0
      vertex 0.333638 7.94167 4
      vertex 0.333638 7.94167 0
    endloop
  endfacet
  facet normal -0.951057 -0.309016 0
    outer loop
      vertex 0.333638 7.94167 4
      vertex 1.56295 4.15823 0
      vertex 1.56295 4.15823 4
    endloop
  endfacet
  facet normal -0.994522 0.104529 0
    outer loop
      vertex 1.56295 -4.15823 0
      vertex 2 0 4
      vertex 2 0 0
    endloop
  endfacet
  facet normal -0.994522 0.104529 0
    outer loop
      vertex 2 0 4
      vertex 1.56295 -4.15823 0
      vertex 1.56295 -4.15823 4
    endloop
  endfacet
  facet normal -0.951057 0.309016 0
    outer loop
      vertex 0.333638 -7.94167 0
      vertex 1.56295 -4.15823 4
      vertex 1.56295 -4.15823 0
    endloop
  endfacet
  facet normal -0.951057 0.309016 0
    outer loop
      vertex 1.56295 -4.15823 4
      vertex 0.333638 -7.94167 0
      vertex 0.333638 -7.94167 4
    endloop
  endfacet
  facet normal -1 0 0
    outer loop
      vertex 46 5 4
      vertex 46 8 0
      vertex 46 5 0
    endloop
  endfacet
  facet normal -1 0 0
    outer loop
      vertex 46 8 0
      vertex 46 5 4
      vertex 46 8 9
    endloop
  endfacet
  facet normal -1 -0 0
    outer loop
      vertex 46 8 9
      vertex 46 5 4
      vertex 46 5 9
    endloop
  endfacet
  facet normal -0 0 1
    outer loop
      vertex 46 8 9
      vertex 50 5 9
      vertex 50 8 9
    endloop
  endfacet
  facet normal 0 0 1
    outer loop
      vertex 50 5 9
      vertex 46 8 9
      vertex 46 5 9
    endloop
  endfacet
  facet normal 0 1 0
    outer loop
      vertex 50 8 9
      vertex 48 8 8
      vertex 46 8 9
    endloop
  endfacet
  facet normal 0 1 0
    outer loop
      vertex 50 8 9
      vertex 48.309 8 7.95106
      vertex 48 8 8
    endloop
  endfacet
  facet normal 0 1 0
    outer loop
      vertex 50 8 9
      vertex 48.5878 8 7.80902
      vertex 48.309 8 7.95106
    endloop
  endfacet
  facet normal 0 1 0
    outer loop
      vertex 50 8 9
      vertex 48.809 8 7.58778
      vertex 48.5878 8 7.80902
    endloop
  endfacet
  facet normal 0 1 0
    outer loop
      vertex 50 8 9
      vertex 48.9511 8 7.30902
      vertex 48.809 8 7.58778
    endloop
  endfacet
  facet normal 0 1 0
    outer loop
      vertex 50 8 9
      vertex 49 8 7
      vertex 48.9511 8 7.30902
    endloop
  endfacet
  facet normal 0 1 0
    outer loop
      vertex 50 8 9
      vertex 48.9511 8 6.69098
      vertex 49 8 7
    endloop
  endfacet
  facet normal 0 1 0
    outer loop
      vertex 48.309 8 6.04894
      vertex 50 8 0
      vertex 48 8 6
    endloop
  endfacet
  facet normal 0 1 0
    outer loop
      vertex 48.5878 8 6.19098
      vertex 50 8 0
      vertex 48.309 8 6.04894
    endloop
  endfacet
  facet normal 0 1 0
    outer loop
      vertex 48.809 8 6.41221
      vertex 50 8 0
      vertex 48.5878 8 6.19098
    endloop
  endfacet
  facet normal 0 1 0
    outer loop
      vertex 48.9511 8 6.69098
      vertex 50 8 0
      vertex 48.809 8 6.41221
    endloop
  endfacet
  facet normal 0 1 -0
    outer loop
      vertex 50 8 0
      vertex 48.9511 8 6.69098
      vertex 50 8 9
    endloop
  endfacet
  facet normal 0 1 -0
    outer loop
      vertex 47.691 8 7.95106
      vertex 46 8 9
      vertex 48 8 8
    endloop
  endfacet
  facet normal 0 1 -0
    outer loop
      vertex 47.4122 8 7.80902
      vertex 46 8 9
      vertex 47.691 8 7.95106
    endloop
  endfacet
  facet normal 0 1 -0
    outer loop
      vertex 47.191 8 7.58778
      vertex 46 8 9
      vertex 47.4122 8 7.80902
    endloop
  endfacet
  facet normal 0 1 -0
    outer loop
      vertex 47.0489 8 7.30902
      vertex 46 8 9
      vertex 47.191 8 7.58778
    endloop
  endfacet
  facet normal 0 1 -0
    outer loop
      vertex 47 8 7
      vertex 46 8 9
      vertex 47.0489 8 7.30902
    endloop
  endfacet
  facet normal 0 1 0
    outer loop
      vertex 47.0489 8 6.69098
      vertex 46 8 9
      vertex 47 8 7
    endloop
  endfacet
  facet normal 0 1 0
    outer loop
      vertex 46 8 0
      vertex 48 8 6
      vertex 50 8 0
    endloop
  endfacet
  facet normal 0 1 0
    outer loop
      vertex 48 8 6
      vertex 46 8 0
      vertex 47.691 8 6.04894
    endloop
  endfacet
  facet normal 0 1 0
    outer loop
      vertex 47.691 8 6.04894
      vertex 46 8 0
      vertex 47.4122 8 6.19098
    endloop
  endfacet
  facet normal 0 1 0
    outer loop
      vertex 47.4122 8 6.19098
      vertex 46 8 0
      vertex 47.191 8 6.41221
    endloop
  endfacet
  facet normal 0 1 0
    outer loop
      vertex 47.191 8 6.41221
      vertex 46 8 0
      vertex 47.0489 8 6.69098
    endloop
  endfacet
  facet normal 0 1 0
    outer loop
      vertex 47.0489 8 6.69098
      vertex 46 8 0
      vertex 46 8 9
    endloop
  endfacet
  facet normal -0.98771 0 0.156297
    outer loop
      vertex 48.9511 5 6.69098
      vertex 49 8 7
      vertex 48.9511 8 6.69098
    endloop
  endfacet
  facet normal -0.98771 0 0.156297
    outer loop
      vertex 49 8 7
      vertex 48.9511 5 6.69098
      vertex 49 5 7
    endloop
  endfacet
  facet normal 0.156432 0 0.987689
    outer loop
      vertex 47.691 8 6.04894
      vertex 48 5 6
      vertex 48 8 6
    endloop
  endfacet
  facet normal 0.156432 0 0.987689
    outer loop
      vertex 48 5 6
      vertex 47.691 8 6.04894
      vertex 47.691 5 6.04894
    endloop
  endfacet
  facet normal -0.156432 0 -0.987689
    outer loop
      vertex 48 5 8
      vertex 48.309 8 7.95106
      vertex 48.309 5 7.95106
    endloop
  endfacet
  facet normal -0.156432 0 -0.987689
    outer loop
      vertex 48.309 8 7.95106
      vertex 48 5 8
      vertex 48 8 8
    endloop
  endfacet
  facet normal -0.890923 0 -0.454155
    outer loop
      vertex 48.9511 5 7.30902
      vertex 48.809 8 7.58778
      vertex 48.9511 8 7.30902
    endloop
  endfacet
  facet normal -0.890923 -0 -0.454155
    outer loop
      vertex 48.809 8 7.58778
      vertex 48.9511 5 7.30902
      vertex 48.809 5 7.58778
    endloop
  endfacet
  facet normal -0.453951 0 0.891027
    outer loop
      vertex 48.309 8 6.04894
      vertex 48.5878 5 6.19098
      vertex 48.5878 8 6.19098
    endloop
  endfacet
  facet normal -0.453951 0 0.891027
    outer loop
      vertex 48.5878 5 6.19098
      vertex 48.309 8 6.04894
      vertex 48.309 5 6.04894
    endloop
  endfacet
  facet normal -0.890929 0 0.454142
    outer loop
      vertex 48.809 5 6.41221
      vertex 48.9511 8 6.69098
      vertex 48.809 8 6.41221
    endloop
  endfacet
  facet normal -0.890929 0 0.454142
    outer loop
      vertex 48.9511 8 6.69098
      vertex 48.809 5 6.41221
      vertex 48.9511 5 6.69098
    endloop
  endfacet
  facet normal -0.156432 0 0.987689
    outer loop
      vertex 48 8 6
      vertex 48.309 5 6.04894
      vertex 48.309 8 6.04894
    endloop
  endfacet
  facet normal -0.156432 0 0.987689
    outer loop
      vertex 48.309 5 6.04894
      vertex 48 8 6
      vertex 48 5 6
    endloop
  endfacet
  facet normal 0.890929 -0 0.454142
    outer loop
      vertex 47.0489 5 6.69098
      vertex 47.191 8 6.41221
      vertex 47.0489 8 6.69098
    endloop
  endfacet
  facet normal 0.890929 0 0.454142
    outer loop
      vertex 47.191 8 6.41221
      vertex 47.0489 5 6.69098
      vertex 47.191 5 6.41221
    endloop
  endfacet
  facet normal 0.98771 -0 0.156297
    outer loop
      vertex 47 5 7
      vertex 47.0489 8 6.69098
      vertex 47 8 7
    endloop
  endfacet
  facet normal 0.98771 0 0.156297
    outer loop
      vertex 47.0489 8 6.69098
      vertex 47 5 7
      vertex 47.0489 5 6.69098
    endloop
  endfacet
  facet normal 0.453951 0 0.891027
    outer loop
      vertex 47.4122 8 6.19098
      vertex 47.691 5 6.04894
      vertex 47.691 8 6.04894
    endloop
  endfacet
  facet normal 0.453951 0 0.891027
    outer loop
      vertex 47.691 5 6.04894
      vertex 47.4122 8 6.19098
      vertex 47.4122 5 6.19098
    endloop
  endfacet
  facet normal -0.707155 0 0.707059
    outer loop
      vertex 48.5878 8 6.19098
      vertex 48.809 5 6.41221
      vertex 48.809 8 6.41221
    endloop
  endfacet
  facet normal -0.707155 0 0.707059
    outer loop
      vertex 48.809 5 6.41221
      vertex 48.5878 8 6.19098
      vertex 48.5878 5 6.19098
    endloop
  endfacet
  facet normal 0.98771 0 -0.156297
    outer loop
      vertex 47.0489 5 7.30902
      vertex 47 8 7
      vertex 47.0489 8 7.30902
    endloop
  endfacet
  facet normal 0.98771 0 -0.156297
    outer loop
      vertex 47 8 7
      vertex 47.0489 5 7.30902
      vertex 47 5 7
    endloop
  endfacet
  facet normal 0.707155 0 0.707059
    outer loop
      vertex 47.191 8 6.41221
      vertex 47.4122 5 6.19098
      vertex 47.4122 8 6.19098
    endloop
  endfacet
  facet normal 0.707155 0 0.707059
    outer loop
      vertex 47.4122 5 6.19098
      vertex 47.191 8 6.41221
      vertex 47.191 5 6.41221
    endloop
  endfacet
  facet normal -0.453951 0 -0.891027
    outer loop
      vertex 48.309 5 7.95106
      vertex 48.5878 8 7.80902
      vertex 48.5878 5 7.80902
    endloop
  endfacet
  facet normal -0.453951 0 -0.891027
    outer loop
      vertex 48.5878 8 7.80902
      vertex 48.309 5 7.95106
      vertex 48.309 8 7.95106
    endloop
  endfacet
  facet normal -0.98771 0 -0.156297
    outer loop
      vertex 49 5 7
      vertex 48.9511 8 7.30902
      vertex 49 8 7
    endloop
  endfacet
  facet normal -0.98771 -0 -0.156297
    outer loop
      vertex 48.9511 8 7.30902
      vertex 49 5 7
      vertex 48.9511 5 7.30902
    endloop
  endfacet
  facet normal -0.707171 0 -0.707043
    outer loop
      vertex 48.5878 5 7.80902
      vertex 48.809 8 7.58778
      vertex 48.809 5 7.58778
    endloop
  endfacet
  facet normal -0.707171 0 -0.707043
    outer loop
      vertex 48.809 8 7.58778
      vertex 48.5878 5 7.80902
      vertex 48.5878 8 7.80902
    endloop
  endfacet
  facet normal 0.156432 0 -0.987689
    outer loop
      vertex 47.691 5 7.95106
      vertex 48 8 8
      vertex 48 5 8
    endloop
  endfacet
  facet normal 0.156432 0 -0.987689
    outer loop
      vertex 48 8 8
      vertex 47.691 5 7.95106
      vertex 47.691 8 7.95106
    endloop
  endfacet
  facet normal 0.707171 0 -0.707043
    outer loop
      vertex 47.191 5 7.58778
      vertex 47.4122 8 7.80902
      vertex 47.4122 5 7.80902
    endloop
  endfacet
  facet normal 0.707171 0 -0.707043
    outer loop
      vertex 47.4122 8 7.80902
      vertex 47.191 5 7.58778
      vertex 47.191 8 7.58778
    endloop
  endfacet
  facet normal 0.890923 0 -0.454155
    outer loop
      vertex 47.191 5 7.58778
      vertex 47.0489 8 7.30902
      vertex 47.191 8 7.58778
    endloop
  endfacet
  facet normal 0.890923 0 -0.454155
    outer loop
      vertex 47.0489 8 7.30902
      vertex 47.191 5 7.58778
      vertex 47.0489 5 7.30902
    endloop
  endfacet
  facet normal 0.453951 0 -0.891027
    outer loop
      vertex 47.4122 5 7.80902
      vertex 47.691 8 7.95106
      vertex 47.691 5 7.95106
    endloop
  endfacet
  facet normal 0.453951 0 -0.891027
    outer loop
      vertex 47.691 8 7.95106
      vertex 47.4122 5 7.80902
      vertex 47.4122 8 7.80902
    endloop
  endfacet
  facet normal -1 0 0
    outer loop
      vertex 46 -8 0
      vertex 46 -5 4
      vertex 46 -5 0
    endloop
  endfacet
  facet normal -1 0 0
    outer loop
      vertex 46 -8 9
      vertex 46 -5 4
      vertex 46 -8 0
    endloop
  endfacet
  facet normal -1 0 0
    outer loop
      vertex 46 -5 4
      vertex 46 -8 9
      vertex 46 -5 9
    endloop
  endfacet
  facet normal -0 0 1
    outer loop
      vertex 46 -5 9
      vertex 50 -8 9
      vertex 50 -5 9
    endloop
  endfacet
  facet normal 0 0 1
    outer loop
      vertex 50 -8 9
      vertex 46 -5 9
      vertex 46 -8 9
    endloop
  endfacet
  facet normal 0 -1 0
    outer loop
      vertex 46 -8 9
      vertex 48 -8 8
      vertex 50 -8 9
    endloop
  endfacet
  facet normal 0 -1 0
    outer loop
      vertex 46 -8 9
      vertex 47.691 -8 7.95106
      vertex 48 -8 8
    endloop
  endfacet
  facet normal 0 -1 0
    outer loop
      vertex 46 -8 9
      vertex 47.4122 -8 7.80902
      vertex 47.691 -8 7.95106
    endloop
  endfacet
  facet normal 0 -1 0
    outer loop
      vertex 46 -8 9
      vertex 47.191 -8 7.58778
      vertex 47.4122 -8 7.80902
    endloop
  endfacet
  facet normal 0 -1 0
    outer loop
      vertex 46 -8 9
      vertex 47.0489 -8 7.30902
      vertex 47.191 -8 7.58778
    endloop
  endfacet
  facet normal 0 -1 0
    outer loop
      vertex 46 -8 9
      vertex 47 -8 7
      vertex 47.0489 -8 7.30902
    endloop
  endfacet
  facet normal 0 -1 0
    outer loop
      vertex 46 -8 9
      vertex 47.0489 -8 6.69098
      vertex 47 -8 7
    endloop
  endfacet
  facet normal 0 -1 -0
    outer loop
      vertex 47.691 -8 6.04894
      vertex 46 -8 0
      vertex 48 -8 6
    endloop
  endfacet
  facet normal 0 -1 -0
    outer loop
      vertex 47.4122 -8 6.19098
      vertex 46 -8 0
      vertex 47.691 -8 6.04894
    endloop
  endfacet
  facet normal 0 -1 -0
    outer loop
      vertex 47.191 -8 6.41221
      vertex 46 -8 0
      vertex 47.4122 -8 6.19098
    endloop
  endfacet
  facet normal 0 -1 -0
    outer loop
      vertex 47.0489 -8 6.69098
      vertex 46 -8 0
      vertex 47.191 -8 6.41221
    endloop
  endfacet
  facet normal 0 -1 0
    outer loop
      vertex 46 -8 0
      vertex 47.0489 -8 6.69098
      vertex 46 -8 9
    endloop
  endfacet
  facet normal 0 -1 0
    outer loop
      vertex 48.309 -8 7.95106
      vertex 50 -8 9
      vertex 48 -8 8
    endloop
  endfacet
  facet normal 0 -1 0
    outer loop
      vertex 48.5878 -8 7.80902
      vertex 50 -8 9
      vertex 48.309 -8 7.95106
    endloop
  endfacet
  facet normal 0 -1 0
    outer loop
      vertex 48.809 -8 7.58778
      vertex 50 -8 9
      vertex 48.5878 -8 7.80902
    endloop
  endfacet
  facet normal 0 -1 0
    outer loop
      vertex 48.9511 -8 7.30902
      vertex 50 -8 9
      vertex 48.809 -8 7.58778
    endloop
  endfacet
  facet normal 0 -1 0
    outer loop
      vertex 49 -8 7
      vertex 50 -8 9
      vertex 48.9511 -8 7.30902
    endloop
  endfacet
  facet normal 0 -1 0
    outer loop
      vertex 48.9511 -8 6.69098
      vertex 50 -8 9
      vertex 49 -8 7
    endloop
  endfacet
  facet normal 0 -1 0
    outer loop
      vertex 50 -8 0
      vertex 48 -8 6
      vertex 46 -8 0
    endloop
  endfacet
  facet normal 0 -1 0
    outer loop
      vertex 48 -8 6
      vertex 50 -8 0
      vertex 48.309 -8 6.04894
    endloop
  endfacet
  facet normal 0 -1 0
    outer loop
      vertex 48.309 -8 6.04894
      vertex 50 -8 0
      vertex 48.5878 -8 6.19098
    endloop
  endfacet
  facet normal 0 -1 0
    outer loop
      vertex 48.5878 -8 6.19098
      vertex 50 -8 0
      vertex 48.809 -8 6.41221
    endloop
  endfacet
  facet normal 0 -1 0
    outer loop
      vertex 48.809 -8 6.41221
      vertex 50 -8 0
      vertex 48.9511 -8 6.69098
    endloop
  endfacet
  facet normal 0 -1 0
    outer loop
      vertex 48.9511 -8 6.69098
      vertex 50 -8 0
      vertex 50 -8 9
    endloop
  endfacet
  facet normal -0.98771 0 0.156297
    outer loop
      vertex 48.9511 -8 6.69098
      vertex 49 -5 7
      vertex 48.9511 -5 6.69098
    endloop
  endfacet
  facet normal -0.98771 0 0.156297
    outer loop
      vertex 49 -5 7
      vertex 48.9511 -8 6.69098
      vertex 49 -8 7
    endloop
  endfacet
  facet normal 0.156432 0 0.987689
    outer loop
      vertex 47.691 -5 6.04894
      vertex 48 -8 6
      vertex 48 -5 6
    endloop
  endfacet
  facet normal 0.156432 0 0.987689
    outer loop
      vertex 48 -8 6
      vertex 47.691 -5 6.04894
      vertex 47.691 -8 6.04894
    endloop
  endfacet
  facet normal -0.156432 0 -0.987689
    outer loop
      vertex 48 -8 8
      vertex 48.309 -5 7.95106
      vertex 48.309 -8 7.95106
    endloop
  endfacet
  facet normal -0.156432 0 -0.987689
    outer loop
      vertex 48.309 -5 7.95106
      vertex 48 -8 8
      vertex 48 -5 8
    endloop
  endfacet
  facet normal -0.890923 0 -0.454155
    outer loop
      vertex 48.9511 -8 7.30902
      vertex 48.809 -5 7.58778
      vertex 48.9511 -5 7.30902
    endloop
  endfacet
  facet normal -0.890923 -0 -0.454155
    outer loop
      vertex 48.809 -5 7.58778
      vertex 48.9511 -8 7.30902
      vertex 48.809 -8 7.58778
    endloop
  endfacet
  facet normal -0.453951 0 0.891027
    outer loop
      vertex 48.309 -5 6.04894
      vertex 48.5878 -8 6.19098
      vertex 48.5878 -5 6.19098
    endloop
  endfacet
  facet normal -0.453951 0 0.891027
    outer loop
      vertex 48.5878 -8 6.19098
      vertex 48.309 -5 6.04894
      vertex 48.309 -8 6.04894
    endloop
  endfacet
  facet normal -0.890929 0 0.454142
    outer loop
      vertex 48.809 -8 6.41221
      vertex 48.9511 -5 6.69098
      vertex 48.809 -5 6.41221
    endloop
  endfacet
  facet normal -0.890929 0 0.454142
    outer loop
      vertex 48.9511 -5 6.69098
      vertex 48.809 -8 6.41221
      vertex 48.9511 -8 6.69098
    endloop
  endfacet
  facet normal -0.156432 0 0.987689
    outer loop
      vertex 48 -5 6
      vertex 48.309 -8 6.04894
      vertex 48.309 -5 6.04894
    endloop
  endfacet
  facet normal -0.156432 0 0.987689
    outer loop
      vertex 48.309 -8 6.04894
      vertex 48 -5 6
      vertex 48 -8 6
    endloop
  endfacet
  facet normal 0.890929 -0 0.454142
    outer loop
      vertex 47.0489 -8 6.69098
      vertex 47.191 -5 6.41221
      vertex 47.0489 -5 6.69098
    endloop
  endfacet
  facet normal 0.890929 0 0.454142
    outer loop
      vertex 47.191 -5 6.41221
      vertex 47.0489 -8 6.69098
      vertex 47.191 -8 6.41221
    endloop
  endfacet
  facet normal 0.98771 -0 0.156297
    outer loop
      vertex 47 -8 7
      vertex 47.0489 -5 6.69098
      vertex 47 -5 7
    endloop
  endfacet
  facet normal 0.98771 0 0.156297
    outer loop
      vertex 47.0489 -5 6.69098
      vertex 47 -8 7
      vertex 47.0489 -8 6.69098
    endloop
  endfacet
  facet normal 0.453951 0 0.891027
    outer loop
      vertex 47.4122 -5 6.19098
      vertex 47.691 -8 6.04894
      vertex 47.691 -5 6.04894
    endloop
  endfacet
  facet normal 0.453951 0 0.891027
    outer loop
      vertex 47.691 -8 6.04894
      vertex 47.4122 -5 6.19098
      vertex 47.4122 -8 6.19098
    endloop
  endfacet
  facet normal -0.707155 0 0.707059
    outer loop
      vertex 48.5878 -5 6.19098
      vertex 48.809 -8 6.41221
      vertex 48.809 -5 6.41221
    endloop
  endfacet
  facet normal -0.707155 0 0.707059
    outer loop
      vertex 48.809 -8 6.41221
      vertex 48.5878 -5 6.19098
      vertex 48.5878 -8 6.19098
    endloop
  endfacet
  facet normal 0.98771 0 -0.156297
    outer loop
      vertex 47.0489 -8 7.30902
      vertex 47 -5 7
      vertex 47.0489 -5 7.30902
    endloop
  endfacet
  facet normal 0.98771 0 -0.156297
    outer loop
      vertex 47 -5 7
      vertex 47.0489 -8 7.30902
      vertex 47 -8 7
    endloop
  endfacet
  facet normal 0.707155 0 0.707059
    outer loop
      vertex 47.191 -5 6.41221
      vertex 47.4122 -8 6.19098
      vertex 47.4122 -5 6.19098
    endloop
  endfacet
  facet normal 0.707155 0 0.707059
    outer loop
      vertex 47.4122 -8 6.19098
      vertex 47.191 -5 6.41221
      vertex 47.191 -8 6.41221
    endloop
  endfacet
  facet normal -0.453951 0 -0.891027
    outer loop
      vertex 48.309 -8 7.95106
      vertex 48.5878 -5 7.80902
      vertex 48.5878 -8 7.80902
    endloop
  endfacet
  facet normal -0.453951 0 -0.891027
    outer loop
      vertex 48.5878 -5 7.80902
      vertex 48.309 -8 7.95106
      vertex 48.309 -5 7.95106
    endloop
  endfacet
  facet normal -0.98771 0 -0.156297
    outer loop
      vertex 49 -8 7
      vertex 48.9511 -5 7.30902
      vertex 49 -5 7
    endloop
  endfacet
  facet normal -0.98771 -0 -0.156297
    outer loop
      vertex 48.9511 -5 7.30902
      vertex 49 -8 7
      vertex 48.9511 -8 7.30902
    endloop
  endfacet
  facet normal -0.707171 0 -0.707043
    outer loop
      vertex 48.5878 -8 7.80902
      vertex 48.809 -5 7.58778
      vertex 48.809 -8 7.58778
    endloop
  endfacet
  facet normal -0.707171 0 -0.707043
    outer loop
      vertex 48.809 -5 7.58778
      vertex 48.5878 -8 7.80902
      vertex 48.5878 -5 7.80902
    endloop
  endfacet
  facet normal 0.156432 0 -0.987689
    outer loop
      vertex 47.691 -8 7.95106
      vertex 48 -5 8
      vertex 48 -8 8
    endloop
  endfacet
  facet normal 0.156432 0 -0.987689
    outer loop
      vertex 48 -5 8
      vertex 47.691 -8 7.95106
      vertex 47.691 -5 7.95106
    endloop
  endfacet
  facet normal 0.707171 0 -0.707043
    outer loop
      vertex 47.191 -8 7.58778
      vertex 47.4122 -5 7.80902
      vertex 47.4122 -8 7.80902
    endloop
  endfacet
  facet normal 0.707171 0 -0.707043
    outer loop
      vertex 47.4122 -5 7.80902
      vertex 47.191 -8 7.58778
      vertex 47.191 -5 7.58778
    endloop
  endfacet
  facet normal 0.890923 0 -0.454155
    outer loop
      vertex 47.191 -8 7.58778
      vertex 47.0489 -5 7.30902
      vertex 47.191 -5 7.58778
    endloop
  endfacet
  facet normal 0.890923 0 -0.454155
    outer loop
      vertex 47.0489 -5 7.30902
      vertex 47.191 -8 7.58778
      vertex 47.0489 -8 7.30902
    endloop
  endfacet
  facet normal 0.453951 0 -0.891027
    outer loop
      vertex 47.4122 -8 7.80902
      vertex 47.691 -5 7.95106
      vertex 47.691 -8 7.95106
    endloop
  endfacet
  facet normal 0.453951 0 -0.891027
    outer loop
      vertex 47.691 -5 7.95106
      vertex 47.4122 -8 7.80902
      vertex 47.4122 -5 7.80902
    endloop
  endfacet
  facet normal -0.987685 -0.156455 0
    outer loop
      vertex 22 0 0
      vertex 21.9021 0.618033 4
      vertex 21.9021 0.618033 0
    endloop
  endfacet
  facet normal -0.987685 -0.156455 0
    outer loop
      vertex 21.9021 0.618033 4
      vertex 22 0 0
      vertex 22 0 4
    endloop
  endfacet
  facet normal 0.156448 -0.987686 0
    outer loop
      vertex 19.382 1.90211 0
      vertex 20 2 4
      vertex 19.382 1.90211 4
    endloop
  endfacet
  facet normal 0.156448 -0.987686 0
    outer loop
      vertex 20 2 4
      vertex 19.382 1.90211 0
      vertex 20 2 0
    endloop
  endfacet
  facet normal -0.156448 0.987686 0
    outer loop
      vertex 20.618 -1.90211 0
      vertex 20 -2 4
      vertex 20.618 -1.90211 4
    endloop
  endfacet
  facet normal -0.156448 0.987686 0
    outer loop
      vertex 20 -2 4
      vertex 20.618 -1.90211 0
      vertex 20 -2 0
    endloop
  endfacet
  facet normal -0.453951 0.891027 0
    outer loop
      vertex 21.1756 -1.61803 0
      vertex 20.618 -1.90211 4
      vertex 21.1756 -1.61803 4
    endloop
  endfacet
  facet normal -0.453951 0.891027 0
    outer loop
      vertex 20.618 -1.90211 4
      vertex 21.1756 -1.61803 0
      vertex 20.618 -1.90211 0
    endloop
  endfacet
  facet normal -0.453951 -0.891027 0
    outer loop
      vertex 20.618 1.90211 0
      vertex 21.1756 1.61803 4
      vertex 20.618 1.90211 4
    endloop
  endfacet
  facet normal -0.453951 -0.891027 -0
    outer loop
      vertex 21.1756 1.61803 4
      vertex 20.618 1.90211 0
      vertex 21.1756 1.61803 0
    endloop
  endfacet
  facet normal -0.890993 -0.454017 0
    outer loop
      vertex 21.9021 0.618033 0
      vertex 21.618 1.17557 4
      vertex 21.618 1.17557 0
    endloop
  endfacet
  facet normal -0.890993 -0.454017 0
    outer loop
      vertex 21.618 1.17557 4
      vertex 21.9021 0.618033 0
      vertex 21.9021 0.618033 4
    endloop
  endfacet
  facet normal -0.156448 -0.987686 0
    outer loop
      vertex 20 2 0
      vertex 20.618 1.90211 4
      vertex 20 2 4
    endloop
  endfacet
  facet normal -0.156448 -0.987686 -0
    outer loop
      vertex 20.618 1.90211 4
      vertex 20 2 0
      vertex 20.618 1.90211 0
    endloop
  endfacet
  facet normal 0.890993 -0.454017 0
    outer loop
      vertex 18.0979 0.618033 4
      vertex 18.382 1.17557 0
      vertex 18.382 1.17557 4
    endloop
  endfacet
  facet normal 0.890993 -0.454017 0
    outer loop
      vertex 18.382 1.17557 0
      vertex 18.0979 0.618033 4
      vertex 18.0979 0.618033 0
    endloop
  endfacet
  facet normal 0.987685 -0.156455 0
    outer loop
      vertex 18 0 4
      vertex 18.0979 0.618033 0
      vertex 18.0979 0.618033 4
    endloop
  endfacet
  facet normal 0.987685 -0.156455 0
    outer loop
      vertex 18.0979 0.618033 0
      vertex 18 0 4
      vertex 18 0 0
    endloop
  endfacet
  facet normal 0.453951 -0.891027 0
    outer loop
      vertex 18.8244 1.61803 0
      vertex 19.382 1.90211 4
      vertex 18.8244 1.61803 4
    endloop
  endfacet
  facet normal 0.453951 -0.891027 0
    outer loop
      vertex 19.382 1.90211 4
      vertex 18.8244 1.61803 0
      vertex 19.382 1.90211 0
    endloop
  endfacet
  facet normal -0.707155 -0.707059 0
    outer loop
      vertex 21.618 1.17557 0
      vertex 21.1756 1.61803 4
      vertex 21.1756 1.61803 0
    endloop
  endfacet
  facet normal -0.707155 -0.707059 0
    outer loop
      vertex 21.1756 1.61803 4
      vertex 21.618 1.17557 0
      vertex 21.618 1.17557 4
    endloop
  endfacet
  facet normal 0.987685 0.156455 0
    outer loop
      vertex 18.0979 -0.618033 4
      vertex 18 0 0
      vertex 18 0 4
    endloop
  endfacet
  facet normal 0.987685 0.156455 0
    outer loop
      vertex 18 0 0
      vertex 18.0979 -0.618033 4
      vertex 18.0979 -0.618033 0
    endloop
  endfacet
  facet normal 0.707155 -0.707059 0
    outer loop
      vertex 18.382 1.17557 4
      vertex 18.8244 1.61803 0
      vertex 18.8244 1.61803 4
    endloop
  endfacet
  facet normal 0.707155 -0.707059 0
    outer loop
      vertex 18.8244 1.61803 0
      vertex 18.382 1.17557 4
      vertex 18.382 1.17557 0
    endloop
  endfacet
  facet normal -0.987685 0.156455 0
    outer loop
      vertex 21.9021 -0.618033 0
      vertex 22 0 4
      vertex 22 0 0
    endloop
  endfacet
  facet normal -0.987685 0.156455 0
    outer loop
      vertex 22 0 4
      vertex 21.9021 -0.618033 0
      vertex 21.9021 -0.618033 4
    endloop
  endfacet
  facet normal 0.890993 0.454017 0
    outer loop
      vertex 18.382 -1.17557 4
      vertex 18.0979 -0.618033 0
      vertex 18.0979 -0.618033 4
    endloop
  endfacet
  facet normal 0.890993 0.454017 0
    outer loop
      vertex 18.0979 -0.618033 0
      vertex 18.382 -1.17557 4
      vertex 18.382 -1.17557 0
    endloop
  endfacet
  facet normal -0.707155 0.707059 0
    outer loop
      vertex 21.1756 -1.61803 0
      vertex 21.618 -1.17557 4
      vertex 21.618 -1.17557 0
    endloop
  endfacet
  facet normal -0.707155 0.707059 0
    outer loop
      vertex 21.618 -1.17557 4
      vertex 21.1756 -1.61803 0
      vertex 21.1756 -1.61803 4
    endloop
  endfacet
  facet normal 0.156448 0.987686 -0
    outer loop
      vertex 20 -2 0
      vertex 19.382 -1.90211 4
      vertex 20 -2 4
    endloop
  endfacet
  facet normal 0.156448 0.987686 0
    outer loop
      vertex 19.382 -1.90211 4
      vertex 20 -2 0
      vertex 19.382 -1.90211 0
    endloop
  endfacet
  facet normal 0.707155 0.707059 0
    outer loop
      vertex 18.8244 -1.61803 4
      vertex 18.382 -1.17557 0
      vertex 18.382 -1.17557 4
    endloop
  endfacet
  facet normal 0.707155 0.707059 0
    outer loop
      vertex 18.382 -1.17557 0
      vertex 18.8244 -1.61803 4
      vertex 18.8244 -1.61803 0
    endloop
  endfacet
  facet normal -0.890993 0.454017 0
    outer loop
      vertex 21.618 -1.17557 0
      vertex 21.9021 -0.618033 4
      vertex 21.9021 -0.618033 0
    endloop
  endfacet
  facet normal -0.890993 0.454017 0
    outer loop
      vertex 21.9021 -0.618033 4
      vertex 21.618 -1.17557 0
      vertex 21.618 -1.17557 4
    endloop
  endfacet
  facet normal 0.453951 0.891027 -0
    outer loop
      vertex 19.382 -1.90211 0
      vertex 18.8244 -1.61803 4
      vertex 19.382 -1.90211 4
    endloop
  endfacet
  facet normal 0.453951 0.891027 0
    outer loop
      vertex 18.8244 -1.61803 4
      vertex 19.382 -1.90211 0
      vertex 18.8244 -1.61803 0
    endloop
  endfacet
  facet normal 0 1 -0
    outer loop
      vertex 0.964293 27.9417 0
      vertex 0.333638 27.9417 4
      vertex 0.964293 27.9417 4
    endloop
  endfacet
  facet normal 0 1 0
    outer loop
      vertex 0.333638 27.9417 4
      vertex 0.964293 27.9417 0
      vertex 0.333638 27.9417 0
    endloop
  endfacet
  facet normal 0 -1 0
    outer loop
      vertex 0.333638 12.0583 0
      vertex 0.964293 12.0583 4
      vertex 0.333638 12.0583 4
    endloop
  endfacet
  facet normal 0 -1 -0
    outer loop
      vertex 0.964293 12.0583 4
      vertex 0.333638 12.0583 0
      vertex 0.964293 12.0583 0
    endloop
  endfacet
  facet normal 0.663125 0.748509 -0
    outer loop
      vertex 5.98809 25.305 0
      vertex 4.54452 26.5839 4
      vertex 5.98809 25.305 4
    endloop
  endfacet
  facet normal 0.663125 0.748509 0
    outer loop
      vertex 4.54452 26.5839 4
      vertex 5.98809 25.305 0
      vertex 4.54452 26.5839 0
    endloop
  endfacet
  facet normal 0 0 1
    outer loop
      vertex 4.54452 13.4161 4
      vertex 1.56295 15.8418 4
      vertex 2.83684 12.5199 4
    endloop
  endfacet
  facet normal 0 0 1
    outer loop
      vertex 1.56295 15.8418 4
      vertex 0.964293 12.0583 4
      vertex 2.83684 12.5199 4
    endloop
  endfacet
  facet normal 0 -0 1
    outer loop
      vertex 0.964293 12.0583 4
      vertex 1.56295 15.8418 4
      vertex 0.333638 12.0583 4
    endloop
  endfacet
  facet normal 0 0 1
    outer loop
      vertex 50 25 4
      vertex 22 20 4
      vertex 50 15 4
    endloop
  endfacet
  facet normal 0 0 1
    outer loop
      vertex 50 25 4
      vertex 21.9021 20.618 4
      vertex 22 20 4
    endloop
  endfacet
  facet normal 0 0 1
    outer loop
      vertex 50 25 4
      vertex 21.618 21.1756 4
      vertex 21.9021 20.618 4
    endloop
  endfacet
  facet normal 0 0 1
    outer loop
      vertex 50 25 4
      vertex 21.1756 21.618 4
      vertex 21.618 21.1756 4
    endloop
  endfacet
  facet normal 0 0 1
    outer loop
      vertex 50 25 4
      vertex 20.618 21.9021 4
      vertex 21.1756 21.618 4
    endloop
  endfacet
  facet normal 0 0 1
    outer loop
      vertex 50 25 4
      vertex 20 22 4
      vertex 20.618 21.9021 4
    endloop
  endfacet
  facet normal 0 0 1
    outer loop
      vertex 18.0979 20.618 4
      vertex 6.1986 25 4
      vertex 18 20 4
    endloop
  endfacet
  facet normal 0 0 1
    outer loop
      vertex 18.382 21.1756 4
      vertex 6.1986 25 4
      vertex 18.0979 20.618 4
    endloop
  endfacet
  facet normal 0 0 1
    outer loop
      vertex 18.8244 21.618 4
      vertex 6.1986 25 4
      vertex 18.382 21.1756 4
    endloop
  endfacet
  facet normal 0 0 1
    outer loop
      vertex 19.382 21.9021 4
      vertex 6.1986 25 4
      vertex 18.8244 21.618 4
    endloop
  endfacet
  facet normal 0 0 1
    outer loop
      vertex 20 22 4
      vertex 6.1986 25 4
      vertex 19.382 21.9021 4
    endloop
  endfacet
  facet normal -0 0 1
    outer loop
      vertex 6.1986 25 4
      vertex 20 22 4
      vertex 50 25 4
    endloop
  endfacet
  facet normal -0 0 1
    outer loop
      vertex 21.9021 19.382 4
      vertex 50 15 4
      vertex 22 20 4
    endloop
  endfacet
  facet normal -0 0 1
    outer loop
      vertex 21.618 18.8244 4
      vertex 50 15 4
      vertex 21.9021 19.382 4
    endloop
  endfacet
  facet normal -0 0 1
    outer loop
      vertex 21.1756 18.382 4
      vertex 50 15 4
      vertex 21.618 18.8244 4
    endloop
  endfacet
  facet normal -0 0 1
    outer loop
      vertex 20.618 18.0979 4
      vertex 50 15 4
      vertex 21.1756 18.382 4
    endloop
  endfacet
  facet normal -0 0 1
    outer loop
      vertex 20 18 4
      vertex 50 15 4
      vertex 20.618 18.0979 4
    endloop
  endfacet
  facet normal 0 0 1
    outer loop
      vertex 6.1986 15 4
      vertex 18 20 4
      vertex 6.1986 25 4
    endloop
  endfacet
  facet normal 0 0 1
    outer loop
      vertex 18 20 4
      vertex 6.1986 15 4
      vertex 18.0979 19.382 4
    endloop
  endfacet
  facet normal 0 0 1
    outer loop
      vertex 18.0979 19.382 4
      vertex 6.1986 15 4
      vertex 18.382 18.8244 4
    endloop
  endfacet
  facet normal 0 0 1
    outer loop
      vertex 20 18 4
      vertex 6.1986 15 4
      vertex 50 15 4
    endloop
  endfacet
  facet normal 0 0 1
    outer loop
      vertex 19.382 18.0979 4
      vertex 6.1986 15 4
      vertex 20 18 4
    endloop
  endfacet
  facet normal 0 0 1
    outer loop
      vertex 18.8244 18.382 4
      vertex 6.1986 15 4
      vertex 19.382 18.0979 4
    endloop
  endfacet
  facet normal 0 0 1
    outer loop
      vertex 18.382 18.8244 4
      vertex 6.1986 15 4
      vertex 18.8244 18.382 4
    endloop
  endfacet
  facet normal 0 0 1
    outer loop
      vertex 1.56295 24.1582 4
      vertex 6.1986 25 4
      vertex 5.98809 25.305 4
    endloop
  endfacet
  facet normal 0 0 1
    outer loop
      vertex 6.1986 25 4
      vertex 2 20 4
      vertex 6.1986 15 4
    endloop
  endfacet
  facet normal 0 0 1
    outer loop
      vertex 1.56295 24.1582 4
      vertex 5.98809 25.305 4
      vertex 4.54452 26.5839 4
    endloop
  endfacet
  facet normal -0 0 1
    outer loop
      vertex 1.56295 15.8418 4
      vertex 6.1986 15 4
      vertex 2 20 4
    endloop
  endfacet
  facet normal 0 0 1
    outer loop
      vertex 1.56295 24.1582 4
      vertex 4.54452 26.5839 4
      vertex 2.83684 27.4801 4
    endloop
  endfacet
  facet normal 0 0 1
    outer loop
      vertex 6.1986 15 4
      vertex 1.56295 15.8418 4
      vertex 5.98809 14.695 4
    endloop
  endfacet
  facet normal 0 0 1
    outer loop
      vertex 5.98809 14.695 4
      vertex 1.56295 15.8418 4
      vertex 4.54452 13.4161 4
    endloop
  endfacet
  facet normal 0 0 1
    outer loop
      vertex 6.1986 25 4
      vertex 1.56295 24.1582 4
      vertex 2 20 4
    endloop
  endfacet
  facet normal 0 0 1
    outer loop
      vertex 0.964293 27.9417 4
      vertex 1.56295 24.1582 4
      vertex 2.83684 27.4801 4
    endloop
  endfacet
  facet normal 0 0 1
    outer loop
      vertex 1.56295 24.1582 4
      vertex 0.964293 27.9417 4
      vertex 0.333638 27.9417 4
    endloop
  endfacet
  facet normal -0 0 -1
    outer loop
      vertex 4.54452 26.5839 0
      vertex 1.56295 24.1582 0
      vertex 2.83684 27.4801 0
    endloop
  endfacet
  facet normal 0 0 -1
    outer loop
      vertex 1.56295 24.1582 0
      vertex 0.964293 27.9417 0
      vertex 2.83684 27.4801 0
    endloop
  endfacet
  facet normal -0 -0 -1
    outer loop
      vertex 0.964293 27.9417 0
      vertex 1.56295 24.1582 0
      vertex 0.333638 27.9417 0
    endloop
  endfacet
  facet normal 0 0 -1
    outer loop
      vertex 50 15 0
      vertex 22 20 0
      vertex 50 25 0
    endloop
  endfacet
  facet normal 0 0 -1
    outer loop
      vertex 50 15 0
      vertex 21.9021 19.382 0
      vertex 22 20 0
    endloop
  endfacet
  facet normal 0 0 -1
    outer loop
      vertex 50 15 0
      vertex 21.618 18.8244 0
      vertex 21.9021 19.382 0
    endloop
  endfacet
  facet normal 0 0 -1
    outer loop
      vertex 50 15 0
      vertex 21.1756 18.382 0
      vertex 21.618 18.8244 0
    endloop
  endfacet
  facet normal 0 0 -1
    outer loop
      vertex 50 15 0
      vertex 20.618 18.0979 0
      vertex 21.1756 18.382 0
    endloop
  endfacet
  facet normal 0 0 -1
    outer loop
      vertex 50 15 0
      vertex 20 18 0
      vertex 20.618 18.0979 0
    endloop
  endfacet
  facet normal -0 0 -1
    outer loop
      vertex 18.0979 19.382 0
      vertex 6.1986 15 0
      vertex 18 20 0
    endloop
  endfacet
  facet normal -0 0 -1
    outer loop
      vertex 18.382 18.8244 0
      vertex 6.1986 15 0
      vertex 18.0979 19.382 0
    endloop
  endfacet
  facet normal -0 0 -1
    outer loop
      vertex 18.8244 18.382 0
      vertex 6.1986 15 0
      vertex 18.382 18.8244 0
    endloop
  endfacet
  facet normal -0 0 -1
    outer loop
      vertex 19.382 18.0979 0
      vertex 6.1986 15 0
      vertex 18.8244 18.382 0
    endloop
  endfacet
  facet normal -0 0 -1
    outer loop
      vertex 20 18 0
      vertex 6.1986 15 0
      vertex 19.382 18.0979 0
    endloop
  endfacet
  facet normal 0 0 -1
    outer loop
      vertex 6.1986 15 0
      vertex 20 18 0
      vertex 50 15 0
    endloop
  endfacet
  facet normal 0 0 -1
    outer loop
      vertex 21.9021 20.618 0
      vertex 50 25 0
      vertex 22 20 0
    endloop
  endfacet
  facet normal 0 0 -1
    outer loop
      vertex 21.618 21.1756 0
      vertex 50 25 0
      vertex 21.9021 20.618 0
    endloop
  endfacet
  facet normal 0 0 -1
    outer loop
      vertex 21.1756 21.618 0
      vertex 50 25 0
      vertex 21.618 21.1756 0
    endloop
  endfacet
  facet normal 0 0 -1
    outer loop
      vertex 20.618 21.9021 0
      vertex 50 25 0
      vertex 21.1756 21.618 0
    endloop
  endfacet
  facet normal 0 0 -1
    outer loop
      vertex 20 22 0
      vertex 50 25 0
      vertex 20.618 21.9021 0
    endloop
  endfacet
  facet normal 0 0 -1
    outer loop
      vertex 6.1986 25 0
      vertex 18 20 0
      vertex 6.1986 15 0
    endloop
  endfacet
  facet normal 0 0 -1
    outer loop
      vertex 18 20 0
      vertex 6.1986 25 0
      vertex 18.0979 20.618 0
    endloop
  endfacet
  facet normal 0 0 -1
    outer loop
      vertex 18.0979 20.618 0
      vertex 6.1986 25 0
      vertex 18.382 21.1756 0
    endloop
  endfacet
  facet normal 0 0 -1
    outer loop
      vertex 20 22 0
      vertex 6.1986 25 0
      vertex 50 25 0
    endloop
  endfacet
  facet normal 0 0 -1
    outer loop
      vertex 19.382 21.9021 0
      vertex 6.1986 25 0
      vertex 20 22 0
    endloop
  endfacet
  facet normal 0 0 -1
    outer loop
      vertex 18.8244 21.618 0
      vertex 6.1986 25 0
      vertex 19.382 21.9021 0
    endloop
  endfacet
  facet normal 0 0 -1
    outer loop
      vertex 18.382 21.1756 0
      vertex 6.1986 25 0
      vertex 18.8244 21.618 0
    endloop
  endfacet
  facet normal 0 0 -1
    outer loop
      vertex 1.56295 15.8418 0
      vertex 6.1986 15 0
      vertex 5.98809 14.695 0
    endloop
  endfacet
  facet normal 0 0 -1
    outer loop
      vertex 6.1986 15 0
      vertex 2 20 0
      vertex 6.1986 25 0
    endloop
  endfacet
  facet normal 0 0 -1
    outer loop
      vertex 1.56295 15.8418 0
      vertex 5.98809 14.695 0
      vertex 4.54452 13.4161 0
    endloop
  endfacet
  facet normal 0 0 -1
    outer loop
      vertex 1.56295 24.1582 0
      vertex 6.1986 25 0
      vertex 2 20 0
    endloop
  endfacet
  facet normal 0 0 -1
    outer loop
      vertex 1.56295 15.8418 0
      vertex 4.54452 13.4161 0
      vertex 2.83684 12.5199 0
    endloop
  endfacet
  facet normal -0 0 -1
    outer loop
      vertex 6.1986 25 0
      vertex 1.56295 24.1582 0
      vertex 5.98809 25.305 0
    endloop
  endfacet
  facet normal -0 0 -1
    outer loop
      vertex 5.98809 25.305 0
      vertex 1.56295 24.1582 0
      vertex 4.54452 26.5839 0
    endloop
  endfacet
  facet normal 0 0 -1
    outer loop
      vertex 6.1986 15 0
      vertex 1.56295 15.8418 0
      vertex 2 20 0
    endloop
  endfacet
  facet normal 0 0 -1
    outer loop
      vertex 0.964293 12.0583 0
      vertex 1.56295 15.8418 0
      vertex 2.83684 12.5199 0
    endloop
  endfacet
  facet normal 0 0 -1
    outer loop
      vertex 1.56295 15.8418 0
      vertex 0.964293 12.0583 0
      vertex 0.333638 12.0583 0
    endloop
  endfacet
  facet normal 0.823004 0.568035 0
    outer loop
      vertex 6.1986 25 4
      vertex 5.98809 25.305 0
      vertex 5.98809 25.305 4
    endloop
  endfacet
  facet normal 0.823004 0.568035 0
    outer loop
      vertex 5.98809 25.305 0
      vertex 6.1986 25 4
      vertex 6.1986 25 0
    endloop
  endfacet
  facet normal 0.239344 0.970935 -0
    outer loop
      vertex 2.83684 27.4801 0
      vertex 0.964293 27.9417 4
      vertex 2.83684 27.4801 4
    endloop
  endfacet
  facet normal 0.239344 0.970935 0
    outer loop
      vertex 0.964293 27.9417 4
      vertex 2.83684 27.4801 0
      vertex 0.964293 27.9417 0
    endloop
  endfacet
  facet normal 0.464699 0.885469 -0
    outer loop
      vertex 4.54452 26.5839 0
      vertex 2.83684 27.4801 4
      vertex 4.54452 26.5839 4
    endloop
  endfacet
  facet normal 0.464699 0.885469 0
    outer loop
      vertex 2.83684 27.4801 4
      vertex 4.54452 26.5839 0
      vertex 2.83684 27.4801 0
    endloop
  endfacet
  facet normal 0.663125 -0.748509 0
    outer loop
      vertex 4.54452 13.4161 0
      vertex 5.98809 14.695 4
      vertex 4.54452 13.4161 4
    endloop
  endfacet
  facet normal 0.663125 -0.748509 0
    outer loop
      vertex 5.98809 14.695 4
      vertex 4.54452 13.4161 0
      vertex 5.98809 14.695 0
    endloop
  endfacet
  facet normal 0.823004 -0.568035 0
    outer loop
      vertex 5.98809 14.695 4
      vertex 6.1986 15 0
      vertex 6.1986 15 4
    endloop
  endfacet
  facet normal 0.823004 -0.568035 0
    outer loop
      vertex 6.1986 15 0
      vertex 5.98809 14.695 4
      vertex 5.98809 14.695 0
    endloop
  endfacet
  facet normal 0.239344 -0.970935 0
    outer loop
      vertex 0.964293 12.0583 0
      vertex 2.83684 12.5199 4
      vertex 0.964293 12.0583 4
    endloop
  endfacet
  facet normal 0.239344 -0.970935 0
    outer loop
      vertex 2.83684 12.5199 4
      vertex 0.964293 12.0583 0
      vertex 2.83684 12.5199 0
    endloop
  endfacet
  facet normal 0.464699 -0.885469 0
    outer loop
      vertex 2.83684 12.5199 0
      vertex 4.54452 13.4161 4
      vertex 2.83684 12.5199 4
    endloop
  endfacet
  facet normal 0.464699 -0.885469 0
    outer loop
      vertex 4.54452 13.4161 4
      vertex 2.83684 12.5199 0
      vertex 4.54452 13.4161 0
    endloop
  endfacet
  facet normal 1 -0 0
    outer loop
      vertex 50 15 4
      vertex 50 25 0
      vertex 50 25 4
    endloop
  endfacet
  facet normal 1 0 0
    outer loop
      vertex 50 25 0
      vertex 50 15 4
      vertex 50 15 0
    endloop
  endfacet
  facet normal 0 1 0
    outer loop
      vertex 47.691 25 2.95106
      vertex 50 25 4
      vertex 48 25 3
    endloop
  endfacet
  facet normal 0 1 0
    outer loop
      vertex 50 25 4
      vertex 48.309 25 2.95106
      vertex 48 25 3
    endloop
  endfacet
  facet normal 0 1 0
    outer loop
      vertex 50 25 4
      vertex 48.5878 25 2.80902
      vertex 48.309 25 2.95106
    endloop
  endfacet
  facet normal 0 1 0
    outer loop
      vertex 50 25 4
      vertex 48.809 25 2.58778
      vertex 48.5878 25 2.80902
    endloop
  endfacet
  facet normal 0 1 0
    outer loop
      vertex 50 25 4
      vertex 48.9511 25 2.30902
      vertex 48.809 25 2.58778
    endloop
  endfacet
  facet normal 0 1 0
    outer loop
      vertex 50 25 4
      vertex 49 25 2
      vertex 48.9511 25 2.30902
    endloop
  endfacet
  facet normal 0 1 -0
    outer loop
      vertex 50 25 0
      vertex 49 25 2
      vertex 50 25 4
    endloop
  endfacet
  facet normal 0 1 0
    outer loop
      vertex 48.309 25 1.04894
      vertex 50 25 0
      vertex 48 25 1
    endloop
  endfacet
  facet normal 0 1 0
    outer loop
      vertex 48.5878 25 1.19098
      vertex 50 25 0
      vertex 48.309 25 1.04894
    endloop
  endfacet
  facet normal 0 1 0
    outer loop
      vertex 48.809 25 1.41221
      vertex 50 25 0
      vertex 48.5878 25 1.19098
    endloop
  endfacet
  facet normal 0 1 0
    outer loop
      vertex 48.9511 25 1.69098
      vertex 50 25 0
      vertex 48.809 25 1.41221
    endloop
  endfacet
  facet normal 0 1 0
    outer loop
      vertex 49 25 2
      vertex 50 25 0
      vertex 48.9511 25 1.69098
    endloop
  endfacet
  facet normal 0 1 0
    outer loop
      vertex 50 25 4
      vertex 47.691 25 2.95106
      vertex 6.1986 25 4
    endloop
  endfacet
  facet normal 0 1 -0
    outer loop
      vertex 47.4122 25 2.80902
      vertex 6.1986 25 4
      vertex 47.691 25 2.95106
    endloop
  endfacet
  facet normal 0 1 -0
    outer loop
      vertex 47.191 25 2.58778
      vertex 6.1986 25 4
      vertex 47.4122 25 2.80902
    endloop
  endfacet
  facet normal 0 1 -0
    outer loop
      vertex 47.0489 25 2.30902
      vertex 6.1986 25 4
      vertex 47.191 25 2.58778
    endloop
  endfacet
  facet normal 0 1 -0
    outer loop
      vertex 47 25 2
      vertex 6.1986 25 4
      vertex 47.0489 25 2.30902
    endloop
  endfacet
  facet normal 0 1 0
    outer loop
      vertex 6.1986 25 0
      vertex 47 25 2
      vertex 47.0489 25 1.69098
    endloop
  endfacet
  facet normal 0 1 0
    outer loop
      vertex 6.1986 25 0
      vertex 47.0489 25 1.69098
      vertex 47.191 25 1.41221
    endloop
  endfacet
  facet normal 0 1 0
    outer loop
      vertex 6.1986 25 0
      vertex 47.191 25 1.41221
      vertex 47.4122 25 1.19098
    endloop
  endfacet
  facet normal 0 1 0
    outer loop
      vertex 6.1986 25 0
      vertex 47.4122 25 1.19098
      vertex 47.691 25 1.04894
    endloop
  endfacet
  facet normal 0 1 0
    outer loop
      vertex 50 25 0
      vertex 47.691 25 1.04894
      vertex 48 25 1
    endloop
  endfacet
  facet normal 0 1 0
    outer loop
      vertex 47.691 25 1.04894
      vertex 50 25 0
      vertex 6.1986 25 0
    endloop
  endfacet
  facet normal 0 1 0
    outer loop
      vertex 47 25 2
      vertex 6.1986 25 0
      vertex 6.1986 25 4
    endloop
  endfacet
  facet normal 0 -1 0
    outer loop
      vertex 47.691 15 2.95106
      vertex 50 15 4
      vertex 6.1986 15 4
    endloop
  endfacet
  facet normal 0 -1 0
    outer loop
      vertex 50 15 4
      vertex 47.691 15 2.95106
      vertex 48 15 3
    endloop
  endfacet
  facet normal 0 -1 0
    outer loop
      vertex 6.1986 15 4
      vertex 47.4122 15 2.80902
      vertex 47.691 15 2.95106
    endloop
  endfacet
  facet normal 0 -1 0
    outer loop
      vertex 6.1986 15 4
      vertex 47.191 15 2.58778
      vertex 47.4122 15 2.80902
    endloop
  endfacet
  facet normal 0 -1 0
    outer loop
      vertex 6.1986 15 4
      vertex 47.0489 15 2.30902
      vertex 47.191 15 2.58778
    endloop
  endfacet
  facet normal 0 -1 0
    outer loop
      vertex 6.1986 15 4
      vertex 47 15 2
      vertex 47.0489 15 2.30902
    endloop
  endfacet
  facet normal 0 -1 0
    outer loop
      vertex 6.1986 15 0
      vertex 47 15 2
      vertex 6.1986 15 4
    endloop
  endfacet
  facet normal 0 -1 -0
    outer loop
      vertex 47 15 2
      vertex 6.1986 15 0
      vertex 47.0489 15 1.69098
    endloop
  endfacet
  facet normal 0 -1 -0
    outer loop
      vertex 47.0489 15 1.69098
      vertex 6.1986 15 0
      vertex 47.191 15 1.41221
    endloop
  endfacet
  facet normal 0 -1 -0
    outer loop
      vertex 47.191 15 1.41221
      vertex 6.1986 15 0
      vertex 47.4122 15 1.19098
    endloop
  endfacet
  facet normal 0 -1 -0
    outer loop
      vertex 47.4122 15 1.19098
      vertex 6.1986 15 0
      vertex 47.691 15 1.04894
    endloop
  endfacet
  facet normal 0 -1 0
    outer loop
      vertex 50 15 0
      vertex 47.691 15 1.04894
      vertex 6.1986 15 0
    endloop
  endfacet
  facet normal 0 -1 0
    outer loop
      vertex 48.309 15 2.95106
      vertex 50 15 4
      vertex 48 15 3
    endloop
  endfacet
  facet normal 0 -1 0
    outer loop
      vertex 48.5878 15 2.80902
      vertex 50 15 4
      vertex 48.309 15 2.95106
    endloop
  endfacet
  facet normal 0 -1 0
    outer loop
      vertex 48.809 15 2.58778
      vertex 50 15 4
      vertex 48.5878 15 2.80902
    endloop
  endfacet
  facet normal 0 -1 0
    outer loop
      vertex 48.9511 15 2.30902
      vertex 50 15 4
      vertex 48.809 15 2.58778
    endloop
  endfacet
  facet normal 0 -1 0
    outer loop
      vertex 49 15 2
      vertex 50 15 4
      vertex 48.9511 15 2.30902
    endloop
  endfacet
  facet normal 0 -1 0
    outer loop
      vertex 50 15 0
      vertex 49 15 2
      vertex 48.9511 15 1.69098
    endloop
  endfacet
  facet normal 0 -1 0
    outer loop
      vertex 49 15 2
      vertex 50 15 0
      vertex 50 15 4
    endloop
  endfacet
  facet normal 0 -1 0
    outer loop
      vertex 48.809 15 1.41221
      vertex 50 15 0
      vertex 48.9511 15 1.69098
    endloop
  endfacet
  facet normal 0 -1 0
    outer loop
      vertex 48.5878 15 1.19098
      vertex 50 15 0
      vertex 48.809 15 1.41221
    endloop
  endfacet
  facet normal 0 -1 0
    outer loop
      vertex 48.309 15 1.04894
      vertex 50 15 0
      vertex 48.5878 15 1.19098
    endloop
  endfacet
  facet normal 0 -1 0
    outer loop
      vertex 48 15 1
      vertex 50 15 0
      vertex 48.309 15 1.04894
    endloop
  endfacet
  facet normal 0 -1 0
    outer loop
      vertex 47.691 15 1.04894
      vertex 50 15 0
      vertex 48 15 1
    endloop
  endfacet
  facet normal -0.994522 -0.10453 0
    outer loop
      vertex 2 20 0
      vertex 1.56295 24.1582 4
      vertex 1.56295 24.1582 0
    endloop
  endfacet
  facet normal -0.994522 -0.10453 0
    outer loop
      vertex 1.56295 24.1582 4
      vertex 2 20 0
      vertex 2 20 4
    endloop
  endfacet
  facet normal -0.951058 -0.309012 0
    outer loop
      vertex 1.56295 24.1582 0
      vertex 0.333638 27.9417 4
      vertex 0.333638 27.9417 0
    endloop
  endfacet
  facet normal -0.951058 -0.309012 0
    outer loop
      vertex 0.333638 27.9417 4
      vertex 1.56295 24.1582 0
      vertex 1.56295 24.1582 4
    endloop
  endfacet
  facet normal -0.994522 0.10453 0
    outer loop
      vertex 1.56295 15.8418 0
      vertex 2 20 4
      vertex 2 20 0
    endloop
  endfacet
  facet normal -0.994522 0.10453 0
    outer loop
      vertex 2 20 4
      vertex 1.56295 15.8418 0
      vertex 1.56295 15.8418 4
    endloop
  endfacet
  facet normal -0.951058 0.309012 0
    outer loop
      vertex 0.333638 12.0583 0
      vertex 1.56295 15.8418 4
      vertex 1.56295 15.8418 0
    endloop
  endfacet
  facet normal -0.951058 0.309012 0
    outer loop
      vertex 1.56295 15.8418 4
      vertex 0.333638 12.0583 0
      vertex 0.333638 12.0583 4
    endloop
  endfacet
  facet normal -0.987684 -0.156463 0
    outer loop
      vertex 22 20 0
      vertex 21.9021 20.618 4
      vertex 21.9021 20.618 0
    endloop
  endfacet
  facet normal -0.987684 -0.156463 0
    outer loop
      vertex 21.9021 20.618 4
      vertex 22 20 0
      vertex 22 20 4
    endloop
  endfacet
  facet normal 0.156463 -0.987684 0
    outer loop
      vertex 19.382 21.9021 0
      vertex 20 22 4
      vertex 19.382 21.9021 4
    endloop
  endfacet
  facet normal 0.156463 -0.987684 0
    outer loop
      vertex 20 22 4
      vertex 19.382 21.9021 0
      vertex 20 22 0
    endloop
  endfacet
  facet normal -0.156463 0.987684 0
    outer loop
      vertex 20.618 18.0979 0
      vertex 20 18 4
      vertex 20.618 18.0979 4
    endloop
  endfacet
  facet normal -0.156463 0.987684 0
    outer loop
      vertex 20 18 4
      vertex 20.618 18.0979 0
      vertex 20 18 0
    endloop
  endfacet
  facet normal -0.453976 0.891014 0
    outer loop
      vertex 21.1756 18.382 0
      vertex 20.618 18.0979 4
      vertex 21.1756 18.382 4
    endloop
  endfacet
  facet normal -0.453976 0.891014 0
    outer loop
      vertex 20.618 18.0979 4
      vertex 21.1756 18.382 0
      vertex 20.618 18.0979 0
    endloop
  endfacet
  facet normal -0.453976 -0.891014 0
    outer loop
      vertex 20.618 21.9021 0
      vertex 21.1756 21.618 4
      vertex 20.618 21.9021 4
    endloop
  endfacet
  facet normal -0.453976 -0.891014 -0
    outer loop
      vertex 21.1756 21.618 4
      vertex 20.618 21.9021 0
      vertex 21.1756 21.618 0
    endloop
  endfacet
  facet normal -0.891014 -0.453976 0
    outer loop
      vertex 21.9021 20.618 0
      vertex 21.618 21.1756 4
      vertex 21.618 21.1756 0
    endloop
  endfacet
  facet normal -0.891014 -0.453976 0
    outer loop
      vertex 21.618 21.1756 4
      vertex 21.9021 20.618 0
      vertex 21.9021 20.618 4
    endloop
  endfacet
  facet normal -0.156463 -0.987684 0
    outer loop
      vertex 20 22 0
      vertex 20.618 21.9021 4
      vertex 20 22 4
    endloop
  endfacet
  facet normal -0.156463 -0.987684 -0
    outer loop
      vertex 20.618 21.9021 4
      vertex 20 22 0
      vertex 20.618 21.9021 0
    endloop
  endfacet
  facet normal 0.891014 -0.453976 0
    outer loop
      vertex 18.0979 20.618 4
      vertex 18.382 21.1756 0
      vertex 18.382 21.1756 4
    endloop
  endfacet
  facet normal 0.891014 -0.453976 0
    outer loop
      vertex 18.382 21.1756 0
      vertex 18.0979 20.618 4
      vertex 18.0979 20.618 0
    endloop
  endfacet
  facet normal 0.987684 -0.156463 0
    outer loop
      vertex 18 20 4
      vertex 18.0979 20.618 0
      vertex 18.0979 20.618 4
    endloop
  endfacet
  facet normal 0.987684 -0.156463 0
    outer loop
      vertex 18.0979 20.618 0
      vertex 18 20 4
      vertex 18 20 0
    endloop
  endfacet
  facet normal 0.453976 -0.891014 0
    outer loop
      vertex 18.8244 21.618 0
      vertex 19.382 21.9021 4
      vertex 18.8244 21.618 4
    endloop
  endfacet
  facet normal 0.453976 -0.891014 0
    outer loop
      vertex 19.382 21.9021 4
      vertex 18.8244 21.618 0
      vertex 19.382 21.9021 0
    endloop
  endfacet
  facet normal -0.707107 -0.707107 0
    outer loop
      vertex 21.618 21.1756 0
      vertex 21.1756 21.618 4
      vertex 21.1756 21.618 0
    endloop
  endfacet
  facet normal -0.707107 -0.707107 0
    outer loop
      vertex 21.1756 21.618 4
      vertex 21.618 21.1756 0
      vertex 21.618 21.1756 4
    endloop
  endfacet
  facet normal 0.987684 0.156463 0
    outer loop
      vertex 18.0979 19.382 4
      vertex 18 20 0
      vertex 18 20 4
    endloop
  endfacet
  facet normal 0.987684 0.156463 0
    outer loop
      vertex 18 20 0
      vertex 18.0979 19.382 4
      vertex 18.0979 19.382 0
    endloop
  endfacet
  facet normal 0.707107 -0.707107 0
    outer loop
      vertex 18.382 21.1756 4
      vertex 18.8244 21.618 0
      vertex 18.8244 21.618 4
    endloop
  endfacet
  facet normal 0.707107 -0.707107 0
    outer loop
      vertex 18.8244 21.618 0
      vertex 18.382 21.1756 4
      vertex 18.382 21.1756 0
    endloop
  endfacet
  facet normal -0.987684 0.156463 0
    outer loop
      vertex 21.9021 19.382 0
      vertex 22 20 4
      vertex 22 20 0
    endloop
  endfacet
  facet normal -0.987684 0.156463 0
    outer loop
      vertex 22 20 4
      vertex 21.9021 19.382 0
      vertex 21.9021 19.382 4
    endloop
  endfacet
  facet normal 0.891014 0.453976 0
    outer loop
      vertex 18.382 18.8244 4
      vertex 18.0979 19.382 0
      vertex 18.0979 19.382 4
    endloop
  endfacet
  facet normal 0.891014 0.453976 0
    outer loop
      vertex 18.0979 19.382 0
      vertex 18.382 18.8244 4
      vertex 18.382 18.8244 0
    endloop
  endfacet
  facet normal -0.707107 0.707107 0
    outer loop
      vertex 21.1756 18.382 0
      vertex 21.618 18.8244 4
      vertex 21.618 18.8244 0
    endloop
  endfacet
  facet normal -0.707107 0.707107 0
    outer loop
      vertex 21.618 18.8244 4
      vertex 21.1756 18.382 0
      vertex 21.1756 18.382 4
    endloop
  endfacet
  facet normal 0.156463 0.987684 -0
    outer loop
      vertex 20 18 0
      vertex 19.382 18.0979 4
      vertex 20 18 4
    endloop
  endfacet
  facet normal 0.156463 0.987684 0
    outer loop
      vertex 19.382 18.0979 4
      vertex 20 18 0
      vertex 19.382 18.0979 0
    endloop
  endfacet
  facet normal 0.707107 0.707107 0
    outer loop
      vertex 18.8244 18.382 4
      vertex 18.382 18.8244 0
      vertex 18.382 18.8244 4
    endloop
  endfacet
  facet normal 0.707107 0.707107 0
    outer loop
      vertex 18.382 18.8244 0
      vertex 18.8244 18.382 4
      vertex 18.8244 18.382 0
    endloop
  endfacet
  facet normal -0.891014 0.453976 0
    outer loop
      vertex 21.618 18.8244 0
      vertex 21.9021 19.382 4
      vertex 21.9021 19.382 0
    endloop
  endfacet
  facet normal -0.891014 0.453976 0
    outer loop
      vertex 21.9021 19.382 4
      vertex 21.618 18.8244 0
      vertex 21.618 18.8244 4
    endloop
  endfacet
  facet normal 0.453976 0.891014 -0
    outer loop
      vertex 19.382 18.0979 0
      vertex 18.8244 18.382 4
      vertex 19.382 18.0979 4
    endloop
  endfacet
  facet normal 0.453976 0.891014 0
    outer loop
      vertex 18.8244 18.382 4
      vertex 19.382 18.0979 0
      vertex 18.8244 18.382 0
    endloop
  endfacet
  facet normal -0.98771 0 0.156297
    outer loop
      vertex 48.9511 15 1.69098
      vertex 49 25 2
      vertex 48.9511 25 1.69098
    endloop
  endfacet
  facet normal -0.98771 0 0.156297
    outer loop
      vertex 49 25 2
      vertex 48.9511 15 1.69098
      vertex 49 15 2
    endloop
  endfacet
  facet normal 0.156432 0 0.987689
    outer loop
      vertex 47.691 25 1.04894
      vertex 48 15 1
      vertex 48 25 1
    endloop
  endfacet
  facet normal 0.156432 0 0.987689
    outer loop
      vertex 48 15 1
      vertex 47.691 25 1.04894
      vertex 47.691 15 1.04894
    endloop
  endfacet
  facet normal -0.156432 0 -0.987689
    outer loop
      vertex 48 15 3
      vertex 48.309 25 2.95106
      vertex 48.309 15 2.95106
    endloop
  endfacet
  facet normal -0.156432 0 -0.987689
    outer loop
      vertex 48.309 25 2.95106
      vertex 48 15 3
      vertex 48 25 3
    endloop
  endfacet
  facet normal -0.890923 0 -0.454155
    outer loop
      vertex 48.9511 15 2.30902
      vertex 48.809 25 2.58778
      vertex 48.9511 25 2.30902
    endloop
  endfacet
  facet normal -0.890923 -0 -0.454155
    outer loop
      vertex 48.809 25 2.58778
      vertex 48.9511 15 2.30902
      vertex 48.809 15 2.58778
    endloop
  endfacet
  facet normal -0.453951 0 0.891027
    outer loop
      vertex 48.309 25 1.04894
      vertex 48.5878 15 1.19098
      vertex 48.5878 25 1.19098
    endloop
  endfacet
  facet normal -0.453951 0 0.891027
    outer loop
      vertex 48.5878 15 1.19098
      vertex 48.309 25 1.04894
      vertex 48.309 15 1.04894
    endloop
  endfacet
  facet normal -0.890929 0 0.454142
    outer loop
      vertex 48.809 15 1.41221
      vertex 48.9511 25 1.69098
      vertex 48.809 25 1.41221
    endloop
  endfacet
  facet normal -0.890929 0 0.454142
    outer loop
      vertex 48.9511 25 1.69098
      vertex 48.809 15 1.41221
      vertex 48.9511 15 1.69098
    endloop
  endfacet
  facet normal -0.156432 0 0.987689
    outer loop
      vertex 48 25 1
      vertex 48.309 15 1.04894
      vertex 48.309 25 1.04894
    endloop
  endfacet
  facet normal -0.156432 0 0.987689
    outer loop
      vertex 48.309 15 1.04894
      vertex 48 25 1
      vertex 48 15 1
    endloop
  endfacet
  facet normal 0.890929 -0 0.454142
    outer loop
      vertex 47.0489 15 1.69098
      vertex 47.191 25 1.41221
      vertex 47.0489 25 1.69098
    endloop
  endfacet
  facet normal 0.890929 0 0.454142
    outer loop
      vertex 47.191 25 1.41221
      vertex 47.0489 15 1.69098
      vertex 47.191 15 1.41221
    endloop
  endfacet
  facet normal 0.98771 -0 0.156297
    outer loop
      vertex 47 15 2
      vertex 47.0489 25 1.69098
      vertex 47 25 2
    endloop
  endfacet
  facet normal 0.98771 0 0.156297
    outer loop
      vertex 47.0489 25 1.69098
      vertex 47 15 2
      vertex 47.0489 15 1.69098
    endloop
  endfacet
  facet normal 0.453951 0 0.891027
    outer loop
      vertex 47.4122 25 1.19098
      vertex 47.691 15 1.04894
      vertex 47.691 25 1.04894
    endloop
  endfacet
  facet normal 0.453951 0 0.891027
    outer loop
      vertex 47.691 15 1.04894
      vertex 47.4122 25 1.19098
      vertex 47.4122 15 1.19098
    endloop
  endfacet
  facet normal -0.98771 0 -0.156297
    outer loop
      vertex 49 15 2
      vertex 48.9511 25 2.30902
      vertex 49 25 2
    endloop
  endfacet
  facet normal -0.98771 -0 -0.156297
    outer loop
      vertex 48.9511 25 2.30902
      vertex 49 15 2
      vertex 48.9511 15 2.30902
    endloop
  endfacet
  facet normal -0.707155 0 0.707059
    outer loop
      vertex 48.5878 25 1.19098
      vertex 48.809 15 1.41221
      vertex 48.809 25 1.41221
    endloop
  endfacet
  facet normal -0.707155 0 0.707059
    outer loop
      vertex 48.809 15 1.41221
      vertex 48.5878 25 1.19098
      vertex 48.5878 15 1.19098
    endloop
  endfacet
  facet normal 0.98771 0 -0.156297
    outer loop
      vertex 47.0489 15 2.30902
      vertex 47 25 2
      vertex 47.0489 25 2.30902
    endloop
  endfacet
  facet normal 0.98771 0 -0.156297
    outer loop
      vertex 47 25 2
      vertex 47.0489 15 2.30902
      vertex 47 15 2
    endloop
  endfacet
  facet normal 0.707155 0 0.707059
    outer loop
      vertex 47.191 25 1.41221
      vertex 47.4122 15 1.19098
      vertex 47.4122 25 1.19098
    endloop
  endfacet
  facet normal 0.707155 0 0.707059
    outer loop
      vertex 47.4122 15 1.19098
      vertex 47.191 25 1.41221
      vertex 47.191 15 1.41221
    endloop
  endfacet
  facet normal -0.453951 0 -0.891027
    outer loop
      vertex 48.309 15 2.95106
      vertex 48.5878 25 2.80902
      vertex 48.5878 15 2.80902
    endloop
  endfacet
  facet normal -0.453951 0 -0.891027
    outer loop
      vertex 48.5878 25 2.80902
      vertex 48.309 15 2.95106
      vertex 48.309 25 2.95106
    endloop
  endfacet
  facet normal -0.707171 0 -0.707043
    outer loop
      vertex 48.5878 15 2.80902
      vertex 48.809 25 2.58778
      vertex 48.809 15 2.58778
    endloop
  endfacet
  facet normal -0.707171 0 -0.707043
    outer loop
      vertex 48.809 25 2.58778
      vertex 48.5878 15 2.80902
      vertex 48.5878 25 2.80902
    endloop
  endfacet
  facet normal 0.156432 0 -0.987689
    outer loop
      vertex 47.691 15 2.95106
      vertex 48 25 3
      vertex 48 15 3
    endloop
  endfacet
  facet normal 0.156432 0 -0.987689
    outer loop
      vertex 48 25 3
      vertex 47.691 15 2.95106
      vertex 47.691 25 2.95106
    endloop
  endfacet
  facet normal 0.707171 0 -0.707043
    outer loop
      vertex 47.191 15 2.58778
      vertex 47.4122 25 2.80902
      vertex 47.4122 15 2.80902
    endloop
  endfacet
  facet normal 0.707171 0 -0.707043
    outer loop
      vertex 47.4122 25 2.80902
      vertex 47.191 15 2.58778
      vertex 47.191 25 2.58778
    endloop
  endfacet
  facet normal 0.890923 0 -0.454155
    outer loop
      vertex 47.191 15 2.58778
      vertex 47.0489 25 2.30902
      vertex 47.191 25 2.58778
    endloop
  endfacet
  facet normal 0.890923 0 -0.454155
    outer loop
      vertex 47.0489 25 2.30902
      vertex 47.191 15 2.58778
      vertex 47.0489 15 2.30902
    endloop
  endfacet
  facet normal 0.453951 0 -0.891027
    outer loop
      vertex 47.4122 15 2.80902
      vertex 47.691 25 2.95106
      vertex 47.691 15 2.95106
    endloop
  endfacet
  facet normal 0.453951 0 -0.891027
    outer loop
      vertex 47.691 25 2.95106
      vertex 47.4122 15 2.80902
      vertex 47.4122 25 2.80902
    endloop
  endfacet
endsolid OpenSCAD_Model
