solid OpenSCAD_Model
  facet normal -1 0 0
    outer loop
      vertex -5.1 -5.1 -5
      vertex -5.1 5.1 5
      vertex -5.1 5.1 -5
    endloop
  endfacet
  facet normal -1 -0 0
    outer loop
      vertex -5.1 5.1 5
      vertex -5.1 -5.1 -5
      vertex -5.1 -5.1 5
    endloop
  endfacet
  facet normal 0 0 1
    outer loop
      vertex 5.1 5.1 5
      vertex 4.3 4.3 5
      vertex 5.1 -5.1 5
    endloop
  endfacet
  facet normal 0 0 1
    outer loop
      vertex 5.1 5.1 5
      vertex -4.3 4.3 5
      vertex 4.3 4.3 5
    endloop
  endfacet
  facet normal 0 0 1
    outer loop
      vertex -4.3 4.3 5
      vertex -5.1 5.1 5
      vertex -4.3 -4.3 5
    endloop
  endfacet
  facet normal -0 0 1
    outer loop
      vertex -5.1 5.1 5
      vertex -4.3 4.3 5
      vertex 5.1 5.1 5
    endloop
  endfacet
  facet normal -0 0 1
    outer loop
      vertex 4.3 -4.3 5
      vertex 5.1 -5.1 5
      vertex 4.3 4.3 5
    endloop
  endfacet
  facet normal -0 0 1
    outer loop
      vertex -4.3 -4.3 5
      vertex 5.1 -5.1 5
      vertex 4.3 -4.3 5
    endloop
  endfacet
  facet normal 0 0 1
    outer loop
      vertex -4.3 -4.3 5
      vertex -5.1 -5.1 5
      vertex 5.1 -5.1 5
    endloop
  endfacet
  facet normal 0 0 1
    outer loop
      vertex -5.1 -5.1 5
      vertex -4.3 -4.3 5
      vertex -5.1 5.1 5
    endloop
  endfacet
  facet normal 1 -0 0
    outer loop
      vertex 5.1 -5.1 5
      vertex 5.1 5.1 -5
      vertex 5.1 5.1 5
    endloop
  endfacet
  facet normal 1 0 0
    outer loop
      vertex 5.1 5.1 -5
      vertex 5.1 -5.1 5
      vertex 5.1 -5.1 -5
    endloop
  endfacet
  facet normal 0 1 -0
    outer loop
      vertex 5.1 5.1 -5
      vertex -5.1 5.1 5
      vertex 5.1 5.1 5
    endloop
  endfacet
  facet normal 0 1 0
    outer loop
      vertex -5.1 5.1 5
      vertex 5.1 5.1 -5
      vertex -5.1 5.1 -5
    endloop
  endfacet
  facet normal 0 0 -1
    outer loop
      vertex 5.1 -5.1 -5
      vertex 4.3 -4.3 -5
      vertex 5.1 5.1 -5
    endloop
  endfacet
  facet normal 0 0 -1
    outer loop
      vertex 5.1 -5.1 -5
      vertex -4.3 -4.3 -5
      vertex 4.3 -4.3 -5
    endloop
  endfacet
  facet normal -0 0 -1
    outer loop
      vertex -4.3 -4.3 -5
      vertex -5.1 -5.1 -5
      vertex -4.3 4.3 -5
    endloop
  endfacet
  facet normal 0 0 -1
    outer loop
      vertex -5.1 -5.1 -5
      vertex -4.3 -4.3 -5
      vertex 5.1 -5.1 -5
    endloop
  endfacet
  facet normal 0 0 -1
    outer loop
      vertex 4.3 4.3 -5
      vertex 5.1 5.1 -5
      vertex 4.3 -4.3 -5
    endloop
  endfacet
  facet normal 0 0 -1
    outer loop
      vertex -4.3 4.3 -5
      vertex 5.1 5.1 -5
      vertex 4.3 4.3 -5
    endloop
  endfacet
  facet normal 0 0 -1
    outer loop
      vertex -4.3 4.3 -5
      vertex -5.1 5.1 -5
      vertex 5.1 5.1 -5
    endloop
  endfacet
  facet normal 0 0 -1
    outer loop
      vertex -5.1 5.1 -5
      vertex -4.3 4.3 -5
      vertex -5.1 -5.1 -5
    endloop
  endfacet
  facet normal 0 -1 0
    outer loop
      vertex -5.1 -5.1 -5
      vertex 5.1 -5.1 5
      vertex -5.1 -5.1 5
    endloop
  endfacet
  facet normal 0 -1 -0
    outer loop
      vertex 5.1 -5.1 5
      vertex -5.1 -5.1 -5
      vertex 5.1 -5.1 -5
    endloop
  endfacet
  facet normal 1 -0 0
    outer loop
      vertex -4.3 -4.3 5
      vertex -4.3 4.3 -5
      vertex -4.3 4.3 5
    endloop
  endfacet
  facet normal 1 0 0
    outer loop
      vertex -4.3 4.3 -5
      vertex -4.3 -4.3 5
      vertex -4.3 -4.3 -5
    endloop
  endfacet
  facet normal -1 0 0
    outer loop
      vertex 4.3 -4.3 -5
      vertex 4.3 4.3 5
      vertex 4.3 4.3 -5
    endloop
  endfacet
  facet normal -1 -0 0
    outer loop
      vertex 4.3 4.3 5
      vertex 4.3 -4.3 -5
      vertex 4.3 -4.3 5
    endloop
  endfacet
  facet normal 0 1 -0
    outer loop
      vertex 4.3 -4.3 -5
      vertex -4.3 -4.3 5
      vertex 4.3 -4.3 5
    endloop
  endfacet
  facet normal 0 1 0
    outer loop
      vertex -4.3 -4.3 5
      vertex 4.3 -4.3 -5
      vertex -4.3 -4.3 -5
    endloop
  endfacet
  facet normal 0 -1 0
    outer loop
      vertex -4.3 4.3 -5
      vertex 4.3 4.3 5
      vertex -4.3 4.3 5
    endloop
  endfacet
  facet normal 0 -1 -0
    outer loop
      vertex 4.3 4.3 5
      vertex -4.3 4.3 -5
      vertex 4.3 4.3 -5
    endloop
  endfacet
endsolid OpenSCAD_Model
