solid OpenSCAD_Model
  facet normal -1 0 0
    outer loop
      vertex 9.25 -1.75 2
      vertex 9.25 1.75 10
      vertex 9.25 1.75 2
    endloop
  endfacet
  facet normal -1 -0 0
    outer loop
      vertex 9.25 1.75 10
      vertex 9.25 -1.75 2
      vertex 9.25 -1.75 10
    endloop
  endfacet
  facet normal -0 0 1
    outer loop
      vertex 9.25 1.75 10
      vertex 12.75 -1.75 10
      vertex 12.75 1.75 10
    endloop
  endfacet
  facet normal 0 0 1
    outer loop
      vertex 12.75 -1.75 10
      vertex 9.25 1.75 10
      vertex 9.25 -1.75 10
    endloop
  endfacet
  facet normal 1 -0 0
    outer loop
      vertex 12.75 -1.75 10
      vertex 12.75 1.75 2
      vertex 12.75 1.75 10
    endloop
  endfacet
  facet normal 1 0 0
    outer loop
      vertex 12.75 1.75 2
      vertex 12.75 -1.75 10
      vertex 12.75 -1.75 2
    endloop
  endfacet
  facet normal 0 1 -0
    outer loop
      vertex 12.75 1.75 2
      vertex 9.25 1.75 10
      vertex 12.75 1.75 10
    endloop
  endfacet
  facet normal 0 1 0
    outer loop
      vertex 9.25 1.75 10
      vertex 12.75 1.75 2
      vertex 9.25 1.75 2
    endloop
  endfacet
  facet normal -0 0 1
    outer loop
      vertex -12.75 -1.75 2
      vertex -10 -10 2
      vertex -9.25 -1.75 2
    endloop
  endfacet
  facet normal 0 0 1
    outer loop
      vertex -12.75 -1.75 2
      vertex -14 -10 2
      vertex -10 -10 2
    endloop
  endfacet
  facet normal -0 0 1
    outer loop
      vertex -19.8423 2.50666 2
      vertex -12.75 1.75 2
      vertex -19.3717 4.9738 2
    endloop
  endfacet
  facet normal -0 0 1
    outer loop
      vertex -10 -14 2
      vertex -3.74763 -19.6457 2
      vertex -10 -10 2
    endloop
  endfacet
  facet normal 0 0 1
    outer loop
      vertex -3.74763 -19.6457 2
      vertex -10 -14 2
      vertex -6.18034 -19.0211 2
    endloop
  endfacet
  facet normal 0 0 1
    outer loop
      vertex -6.18034 -19.0211 2
      vertex -10 -14 2
      vertex -8.51558 -18.0965 2
    endloop
  endfacet
  facet normal 0 0 1
    outer loop
      vertex -10 -14 2
      vertex -10.7165 -16.8866 2
      vertex -8.51558 -18.0965 2
    endloop
  endfacet
  facet normal 0 0 1
    outer loop
      vertex -10 -14 2
      vertex -12.7485 -15.4103 2
      vertex -10.7165 -16.8866 2
    endloop
  endfacet
  facet normal -0 0 1
    outer loop
      vertex -14 -14 2
      vertex -12.7485 -15.4103 2
      vertex -10 -14 2
    endloop
  endfacet
  facet normal 0 0 1
    outer loop
      vertex -14 -14 2
      vertex -14.5794 -13.6909 2
      vertex -12.7485 -15.4103 2
    endloop
  endfacet
  facet normal 0 0 1
    outer loop
      vertex -14 -10 2
      vertex -14.5794 -13.6909 2
      vertex -14 -14 2
    endloop
  endfacet
  facet normal 0 0 1
    outer loop
      vertex -18.5955 7.36249 2
      vertex -14 10 2
      vertex -17.5261 9.63507 2
    endloop
  endfacet
  facet normal 0 0 1
    outer loop
      vertex -14 -10 2
      vertex -16.1803 -11.7557 2
      vertex -14.5794 -13.6909 2
    endloop
  endfacet
  facet normal 0 0 1
    outer loop
      vertex -19.3717 4.9738 2
      vertex -14 10 2
      vertex -18.5955 7.36249 2
    endloop
  endfacet
  facet normal 0 0 1
    outer loop
      vertex -14 -10 2
      vertex -17.5261 -9.63507 2
      vertex -16.1803 -11.7557 2
    endloop
  endfacet
  facet normal 0 0 1
    outer loop
      vertex -20 0 2
      vertex -12.75 1.75 2
      vertex -19.8423 2.50666 2
    endloop
  endfacet
  facet normal 0 0 1
    outer loop
      vertex -14 -10 2
      vertex -18.5955 -7.36249 2
      vertex -17.5261 -9.63507 2
    endloop
  endfacet
  facet normal 0 0 1
    outer loop
      vertex -12.75 1.75 2
      vertex -20 0 2
      vertex -12.75 -1.75 2
    endloop
  endfacet
  facet normal 0 0 1
    outer loop
      vertex -12.75 -1.75 2
      vertex -18.5955 -7.36249 2
      vertex -14 -10 2
    endloop
  endfacet
  facet normal 0 -0 1
    outer loop
      vertex -19.8423 -2.50666 2
      vertex -12.75 -1.75 2
      vertex -20 0 2
    endloop
  endfacet
  facet normal 0 -0 1
    outer loop
      vertex -18.5955 -7.36249 2
      vertex -12.75 -1.75 2
      vertex -19.3717 -4.9738 2
    endloop
  endfacet
  facet normal 0 -0 1
    outer loop
      vertex -19.3717 -4.9738 2
      vertex -12.75 -1.75 2
      vertex -19.8423 -2.50666 2
    endloop
  endfacet
  facet normal 0 0 1
    outer loop
      vertex 10 10 2
      vertex -10 10 2
      vertex -9.25 1.75 2
    endloop
  endfacet
  facet normal 0 0 1
    outer loop
      vertex -10 10 2
      vertex -12.75 1.75 2
      vertex -9.25 1.75 2
    endloop
  endfacet
  facet normal -0 0 1
    outer loop
      vertex -19.3717 4.9738 2
      vertex -12.75 1.75 2
      vertex -14 10 2
    endloop
  endfacet
  facet normal -0 0 1
    outer loop
      vertex -14 10 2
      vertex -12.75 1.75 2
      vertex -10 10 2
    endloop
  endfacet
  facet normal 0 0 1
    outer loop
      vertex 19.8423 -2.50666 2
      vertex 12.75 -1.75 2
      vertex 19.3717 -4.9738 2
    endloop
  endfacet
  facet normal -0 0 1
    outer loop
      vertex 10 10 2
      vertex 12.75 1.75 2
      vertex 14 10 2
    endloop
  endfacet
  facet normal 0 0 1
    outer loop
      vertex 12.75 1.75 2
      vertex 10 10 2
      vertex 9.25 1.75 2
    endloop
  endfacet
  facet normal 0 0 1
    outer loop
      vertex 19.3717 4.9738 2
      vertex 12.75 1.75 2
      vertex 19.8423 2.50666 2
    endloop
  endfacet
  facet normal 0 0 1
    outer loop
      vertex 18.5955 7.36249 2
      vertex 12.75 1.75 2
      vertex 19.3717 4.9738 2
    endloop
  endfacet
  facet normal 0 0 1
    outer loop
      vertex 19.8423 2.50666 2
      vertex 12.75 1.75 2
      vertex 20 0 2
    endloop
  endfacet
  facet normal 0 0 1
    outer loop
      vertex 12.75 1.75 2
      vertex 18.5955 7.36249 2
      vertex 14 10 2
    endloop
  endfacet
  facet normal 0 0 1
    outer loop
      vertex 12.75 -1.75 2
      vertex 20 0 2
      vertex 12.75 1.75 2
    endloop
  endfacet
  facet normal 0 0 1
    outer loop
      vertex 14 10 2
      vertex 18.5955 7.36249 2
      vertex 17.5261 9.63507 2
    endloop
  endfacet
  facet normal 0 0 1
    outer loop
      vertex 20 0 2
      vertex 12.75 -1.75 2
      vertex 19.8423 -2.50666 2
    endloop
  endfacet
  facet normal -0 0 1
    outer loop
      vertex 14 10 2
      vertex 17.5261 9.63507 2
      vertex 16.1803 11.7557 2
    endloop
  endfacet
  facet normal 0 0 1
    outer loop
      vertex 19.3717 -4.9738 2
      vertex 14 -10 2
      vertex 18.5955 -7.36249 2
    endloop
  endfacet
  facet normal 0 0 1
    outer loop
      vertex 14 10 2
      vertex 16.1803 11.7557 2
      vertex 14.5794 13.6909 2
    endloop
  endfacet
  facet normal 0 0 1
    outer loop
      vertex 18.5955 -7.36249 2
      vertex 14 -10 2
      vertex 17.5261 -9.63507 2
    endloop
  endfacet
  facet normal 0 0 1
    outer loop
      vertex 14 10 2
      vertex 14.5794 13.6909 2
      vertex 14 14 2
    endloop
  endfacet
  facet normal 0 0 1
    outer loop
      vertex 12.7485 15.4103 2
      vertex 14 14 2
      vertex 14.5794 13.6909 2
    endloop
  endfacet
  facet normal 0 0 1
    outer loop
      vertex 10 14 2
      vertex 12.7485 15.4103 2
      vertex 10.7165 16.8866 2
    endloop
  endfacet
  facet normal 0 0 1
    outer loop
      vertex 12.7485 15.4103 2
      vertex 10 14 2
      vertex 14 14 2
    endloop
  endfacet
  facet normal 0 0 1
    outer loop
      vertex 3.74763 19.6457 2
      vertex 10 10 2
      vertex 10 14 2
    endloop
  endfacet
  facet normal 0 0 1
    outer loop
      vertex 3.74763 19.6457 2
      vertex 10 14 2
      vertex 6.18034 19.0211 2
    endloop
  endfacet
  facet normal 0 0 1
    outer loop
      vertex 6.18034 19.0211 2
      vertex 10 14 2
      vertex 8.51558 18.0965 2
    endloop
  endfacet
  facet normal 0 0 1
    outer loop
      vertex 8.51558 18.0965 2
      vertex 10 14 2
      vertex 10.7165 16.8866 2
    endloop
  endfacet
  facet normal 0 0 1
    outer loop
      vertex 17.5261 -9.63507 2
      vertex 14 -10 2
      vertex 16.1803 -11.7557 2
    endloop
  endfacet
  facet normal 0 0 1
    outer loop
      vertex 16.1803 -11.7557 2
      vertex 14 -10 2
      vertex 14.5794 -13.6909 2
    endloop
  endfacet
  facet normal 0 0 1
    outer loop
      vertex 14 -14 2
      vertex 14.5794 -13.6909 2
      vertex 14 -10 2
    endloop
  endfacet
  facet normal -0 0 1
    outer loop
      vertex 14 -14 2
      vertex 12.7485 -15.4103 2
      vertex 14.5794 -13.6909 2
    endloop
  endfacet
  facet normal -0 0 1
    outer loop
      vertex 10 -14 2
      vertex 12.7485 -15.4103 2
      vertex 14 -14 2
    endloop
  endfacet
  facet normal 0 0 1
    outer loop
      vertex 12.7485 -15.4103 2
      vertex 10 -14 2
      vertex 10.7165 -16.8866 2
    endloop
  endfacet
  facet normal 0 0 1
    outer loop
      vertex 10 -14 2
      vertex 8.51558 -18.0965 2
      vertex 10.7165 -16.8866 2
    endloop
  endfacet
  facet normal 0 0 1
    outer loop
      vertex 10 -10 2
      vertex 8.51558 -18.0965 2
      vertex 10 -14 2
    endloop
  endfacet
  facet normal 0 0 1
    outer loop
      vertex 10 10 2
      vertex 3.74763 19.6457 2
      vertex 1.25581 19.9605 2
    endloop
  endfacet
  facet normal -0 0 1
    outer loop
      vertex -1.25581 19.9605 2
      vertex 10 10 2
      vertex 1.25581 19.9605 2
    endloop
  endfacet
  facet normal 0 0 1
    outer loop
      vertex 9.25 -1.75 2
      vertex -9.25 -1.75 2
      vertex 10 -10 2
    endloop
  endfacet
  facet normal 0 0 1
    outer loop
      vertex 9.25 1.75 2
      vertex -9.25 1.75 2
      vertex 9.25 -1.75 2
    endloop
  endfacet
  facet normal 0 0 1
    outer loop
      vertex 10 -10 2
      vertex 6.18034 -19.0211 2
      vertex 8.51558 -18.0965 2
    endloop
  endfacet
  facet normal 0 0 1
    outer loop
      vertex -1.25581 19.9605 2
      vertex -10 10 2
      vertex 10 10 2
    endloop
  endfacet
  facet normal 0 0 1
    outer loop
      vertex 10 -10 2
      vertex 3.74763 -19.6457 2
      vertex 6.18034 -19.0211 2
    endloop
  endfacet
  facet normal -0 0 1
    outer loop
      vertex -3.74763 19.6457 2
      vertex -10 10 2
      vertex -1.25581 19.9605 2
    endloop
  endfacet
  facet normal 0 0 1
    outer loop
      vertex 10 -10 2
      vertex 1.25581 -19.9605 2
      vertex 3.74763 -19.6457 2
    endloop
  endfacet
  facet normal 0 0 1
    outer loop
      vertex -10 10 2
      vertex -3.74763 19.6457 2
      vertex -10 14 2
    endloop
  endfacet
  facet normal 0 0 1
    outer loop
      vertex 10 -10 2
      vertex -1.25581 -19.9605 2
      vertex 1.25581 -19.9605 2
    endloop
  endfacet
  facet normal 0 0 1
    outer loop
      vertex -10 14 2
      vertex -3.74763 19.6457 2
      vertex -6.18034 19.0211 2
    endloop
  endfacet
  facet normal 0 0 1
    outer loop
      vertex -10 -10 2
      vertex 10 -10 2
      vertex -9.25 -1.75 2
    endloop
  endfacet
  facet normal 0 0 1
    outer loop
      vertex -10 14 2
      vertex -6.18034 19.0211 2
      vertex -8.51558 18.0965 2
    endloop
  endfacet
  facet normal 0 0 1
    outer loop
      vertex 10 -10 2
      vertex -10 -10 2
      vertex -1.25581 -19.9605 2
    endloop
  endfacet
  facet normal 0 0 1
    outer loop
      vertex -1.25581 -19.9605 2
      vertex -10 -10 2
      vertex -3.74763 -19.6457 2
    endloop
  endfacet
  facet normal 0 0 1
    outer loop
      vertex 10 10 2
      vertex -9.25 1.75 2
      vertex 9.25 1.75 2
    endloop
  endfacet
  facet normal -0 0 1
    outer loop
      vertex -10.7165 16.8866 2
      vertex -10 14 2
      vertex -8.51558 18.0965 2
    endloop
  endfacet
  facet normal -0 0 1
    outer loop
      vertex -12.7485 15.4103 2
      vertex -10 14 2
      vertex -10.7165 16.8866 2
    endloop
  endfacet
  facet normal 0 0 1
    outer loop
      vertex -12.7485 15.4103 2
      vertex -14 14 2
      vertex -10 14 2
    endloop
  endfacet
  facet normal -0 0 1
    outer loop
      vertex -14.5794 13.6909 2
      vertex -14 10 2
      vertex -14 14 2
    endloop
  endfacet
  facet normal -0 0 1
    outer loop
      vertex -16.1803 11.7557 2
      vertex -14 10 2
      vertex -14.5794 13.6909 2
    endloop
  endfacet
  facet normal 0 0 1
    outer loop
      vertex -17.5261 9.63507 2
      vertex -14 10 2
      vertex -16.1803 11.7557 2
    endloop
  endfacet
  facet normal 0 0 1
    outer loop
      vertex -14.5794 13.6909 2
      vertex -14 14 2
      vertex -12.7485 15.4103 2
    endloop
  endfacet
  facet normal 0 0 1
    outer loop
      vertex 19.3717 -4.9738 2
      vertex 12.75 -1.75 2
      vertex 14 -10 2
    endloop
  endfacet
  facet normal 0 0 1
    outer loop
      vertex 12.75 -1.75 2
      vertex 10 -10 2
      vertex 14 -10 2
    endloop
  endfacet
  facet normal 0 0 1
    outer loop
      vertex -9.25 -1.75 2
      vertex 9.25 -1.75 2
      vertex -9.25 1.75 2
    endloop
  endfacet
  facet normal -0 0 1
    outer loop
      vertex 9.25 -1.75 2
      vertex 10 -10 2
      vertex 12.75 -1.75 2
    endloop
  endfacet
  facet normal 0 -1 0
    outer loop
      vertex 9.25 -1.75 2
      vertex 12.75 -1.75 10
      vertex 9.25 -1.75 10
    endloop
  endfacet
  facet normal 0 -1 -0
    outer loop
      vertex 12.75 -1.75 10
      vertex 9.25 -1.75 2
      vertex 12.75 -1.75 2
    endloop
  endfacet
  facet normal -1 0 0
    outer loop
      vertex -12.75 -1.75 2
      vertex -12.75 1.75 10
      vertex -12.75 1.75 2
    endloop
  endfacet
  facet normal -1 -0 0
    outer loop
      vertex -12.75 1.75 10
      vertex -12.75 -1.75 2
      vertex -12.75 -1.75 10
    endloop
  endfacet
  facet normal -0 0 1
    outer loop
      vertex -12.75 1.75 10
      vertex -9.25 -1.75 10
      vertex -9.25 1.75 10
    endloop
  endfacet
  facet normal 0 0 1
    outer loop
      vertex -9.25 -1.75 10
      vertex -12.75 1.75 10
      vertex -12.75 -1.75 10
    endloop
  endfacet
  facet normal 1 -0 0
    outer loop
      vertex -9.25 -1.75 10
      vertex -9.25 1.75 2
      vertex -9.25 1.75 10
    endloop
  endfacet
  facet normal 1 0 0
    outer loop
      vertex -9.25 1.75 2
      vertex -9.25 -1.75 10
      vertex -9.25 -1.75 2
    endloop
  endfacet
  facet normal 0 1 -0
    outer loop
      vertex -9.25 1.75 2
      vertex -12.75 1.75 10
      vertex -9.25 1.75 10
    endloop
  endfacet
  facet normal 0 1 0
    outer loop
      vertex -12.75 1.75 10
      vertex -9.25 1.75 2
      vertex -12.75 1.75 2
    endloop
  endfacet
  facet normal 0 -1 0
    outer loop
      vertex -12.75 -1.75 2
      vertex -9.25 -1.75 10
      vertex -12.75 -1.75 10
    endloop
  endfacet
  facet normal 0 -1 -0
    outer loop
      vertex -9.25 -1.75 10
      vertex -12.75 -1.75 2
      vertex -9.25 -1.75 2
    endloop
  endfacet
  facet normal -1 0 0
    outer loop
      vertex 10 10 2
      vertex 10 14 6
      vertex 10 14 2
    endloop
  endfacet
  facet normal -1 -0 0
    outer loop
      vertex 10 14 6
      vertex 10 10 2
      vertex 10 10 6
    endloop
  endfacet
  facet normal -0 0 1
    outer loop
      vertex 10 14 6
      vertex 14 10 6
      vertex 14 14 6
    endloop
  endfacet
  facet normal 0 0 1
    outer loop
      vertex 14 10 6
      vertex 10 14 6
      vertex 10 10 6
    endloop
  endfacet
  facet normal 1 -0 0
    outer loop
      vertex 14 10 6
      vertex 14 14 2
      vertex 14 14 6
    endloop
  endfacet
  facet normal 1 0 0
    outer loop
      vertex 14 14 2
      vertex 14 10 6
      vertex 14 10 2
    endloop
  endfacet
  facet normal 0 1 -0
    outer loop
      vertex 14 14 2
      vertex 10 14 6
      vertex 14 14 6
    endloop
  endfacet
  facet normal 0 1 0
    outer loop
      vertex 10 14 6
      vertex 14 14 2
      vertex 10 14 2
    endloop
  endfacet
  facet normal 0 -1 0
    outer loop
      vertex 10 10 2
      vertex 14 10 6
      vertex 10 10 6
    endloop
  endfacet
  facet normal 0 -1 -0
    outer loop
      vertex 14 10 6
      vertex 10 10 2
      vertex 14 10 2
    endloop
  endfacet
  facet normal -1 0 0
    outer loop
      vertex -14 10 2
      vertex -14 14 6
      vertex -14 14 2
    endloop
  endfacet
  facet normal -1 -0 0
    outer loop
      vertex -14 14 6
      vertex -14 10 2
      vertex -14 10 6
    endloop
  endfacet
  facet normal -0 0 1
    outer loop
      vertex -14 14 6
      vertex -10 10 6
      vertex -10 14 6
    endloop
  endfacet
  facet normal 0 0 1
    outer loop
      vertex -10 10 6
      vertex -14 14 6
      vertex -14 10 6
    endloop
  endfacet
  facet normal 1 -0 0
    outer loop
      vertex -10 10 6
      vertex -10 14 2
      vertex -10 14 6
    endloop
  endfacet
  facet normal 1 0 0
    outer loop
      vertex -10 14 2
      vertex -10 10 6
      vertex -10 10 2
    endloop
  endfacet
  facet normal 0 -1 0
    outer loop
      vertex -14 10 2
      vertex -10 10 6
      vertex -14 10 6
    endloop
  endfacet
  facet normal 0 -1 -0
    outer loop
      vertex -10 10 6
      vertex -14 10 2
      vertex -10 10 2
    endloop
  endfacet
  facet normal 0 1 -0
    outer loop
      vertex -10 14 2
      vertex -14 14 6
      vertex -10 14 6
    endloop
  endfacet
  facet normal 0 1 0
    outer loop
      vertex -14 14 6
      vertex -10 14 2
      vertex -14 14 2
    endloop
  endfacet
  facet normal -1 0 0
    outer loop
      vertex -14 -14 2
      vertex -14 -10 6
      vertex -14 -10 2
    endloop
  endfacet
  facet normal -1 -0 0
    outer loop
      vertex -14 -10 6
      vertex -14 -14 2
      vertex -14 -14 6
    endloop
  endfacet
  facet normal -0 0 1
    outer loop
      vertex -14 -10 6
      vertex -10 -14 6
      vertex -10 -10 6
    endloop
  endfacet
  facet normal 0 0 1
    outer loop
      vertex -10 -14 6
      vertex -14 -10 6
      vertex -14 -14 6
    endloop
  endfacet
  facet normal 1 -0 0
    outer loop
      vertex -10 -14 6
      vertex -10 -10 2
      vertex -10 -10 6
    endloop
  endfacet
  facet normal 1 0 0
    outer loop
      vertex -10 -10 2
      vertex -10 -14 6
      vertex -10 -14 2
    endloop
  endfacet
  facet normal 0 1 -0
    outer loop
      vertex -10 -10 2
      vertex -14 -10 6
      vertex -10 -10 6
    endloop
  endfacet
  facet normal 0 1 0
    outer loop
      vertex -14 -10 6
      vertex -10 -10 2
      vertex -14 -10 2
    endloop
  endfacet
  facet normal 0 -1 0
    outer loop
      vertex -14 -14 2
      vertex -10 -14 6
      vertex -14 -14 6
    endloop
  endfacet
  facet normal 0 -1 -0
    outer loop
      vertex -10 -14 6
      vertex -14 -14 2
      vertex -10 -14 2
    endloop
  endfacet
  facet normal -1 0 0
    outer loop
      vertex 10 -14 2
      vertex 10 -10 6
      vertex 10 -10 2
    endloop
  endfacet
  facet normal -1 -0 0
    outer loop
      vertex 10 -10 6
      vertex 10 -14 2
      vertex 10 -14 6
    endloop
  endfacet
  facet normal -0 0 1
    outer loop
      vertex 10 -10 6
      vertex 14 -14 6
      vertex 14 -10 6
    endloop
  endfacet
  facet normal 0 0 1
    outer loop
      vertex 14 -14 6
      vertex 10 -10 6
      vertex 10 -14 6
    endloop
  endfacet
  facet normal 1 -0 0
    outer loop
      vertex 14 -14 6
      vertex 14 -10 2
      vertex 14 -10 6
    endloop
  endfacet
  facet normal 1 0 0
    outer loop
      vertex 14 -10 2
      vertex 14 -14 6
      vertex 14 -14 2
    endloop
  endfacet
  facet normal 0 -1 0
    outer loop
      vertex 10 -14 2
      vertex 14 -14 6
      vertex 10 -14 6
    endloop
  endfacet
  facet normal 0 -1 -0
    outer loop
      vertex 14 -14 6
      vertex 10 -14 2
      vertex 14 -14 2
    endloop
  endfacet
  facet normal 0 1 -0
    outer loop
      vertex 14 -10 2
      vertex 10 -10 6
      vertex 14 -10 6
    endloop
  endfacet
  facet normal 0 1 0
    outer loop
      vertex 10 -10 6
      vertex 14 -10 2
      vertex 10 -10 2
    endloop
  endfacet
  facet normal 0.998027 0.0627883 0
    outer loop
      vertex 20 0 2
      vertex 19.8423 2.50666 0
      vertex 19.8423 2.50666 2
    endloop
  endfacet
  facet normal 0.998027 0.0627883 0
    outer loop
      vertex 19.8423 2.50666 0
      vertex 20 0 2
      vertex 20 0 0
    endloop
  endfacet
  facet normal -0.998027 0.0627883 0
    outer loop
      vertex -20 0 0
      vertex -19.8423 2.50666 2
      vertex -19.8423 2.50666 0
    endloop
  endfacet
  facet normal -0.998027 0.0627883 0
    outer loop
      vertex -19.8423 2.50666 2
      vertex -20 0 0
      vertex -20 0 2
    endloop
  endfacet
  facet normal 0 1 -0
    outer loop
      vertex 1.25581 19.9605 0
      vertex -1.25581 19.9605 2
      vertex 1.25581 19.9605 2
    endloop
  endfacet
  facet normal 0 1 0
    outer loop
      vertex -1.25581 19.9605 2
      vertex 1.25581 19.9605 0
      vertex -1.25581 19.9605 0
    endloop
  endfacet
  facet normal 0 -1 0
    outer loop
      vertex -1.25581 -19.9605 0
      vertex 1.25581 -19.9605 2
      vertex -1.25581 -19.9605 2
    endloop
  endfacet
  facet normal 0 -1 -0
    outer loop
      vertex 1.25581 -19.9605 2
      vertex -1.25581 -19.9605 0
      vertex 1.25581 -19.9605 0
    endloop
  endfacet
  facet normal 0.684562 0.728955 -0
    outer loop
      vertex 14.5794 13.6909 0
      vertex 12.7485 15.4103 2
      vertex 14.5794 13.6909 2
    endloop
  endfacet
  facet normal 0.684562 0.728955 0
    outer loop
      vertex 12.7485 15.4103 2
      vertex 14.5794 13.6909 0
      vertex 12.7485 15.4103 0
    endloop
  endfacet
  facet normal -0.684562 0.728955 0
    outer loop
      vertex -12.7485 15.4103 0
      vertex -14.5794 13.6909 2
      vertex -12.7485 15.4103 2
    endloop
  endfacet
  facet normal -0.684562 0.728955 0
    outer loop
      vertex -14.5794 13.6909 2
      vertex -12.7485 15.4103 0
      vertex -14.5794 13.6909 0
    endloop
  endfacet
  facet normal -0.368129 0.929775 0
    outer loop
      vertex -6.18034 19.0211 0
      vertex -8.51558 18.0965 2
      vertex -6.18034 19.0211 2
    endloop
  endfacet
  facet normal -0.368129 0.929775 0
    outer loop
      vertex -8.51558 18.0965 2
      vertex -6.18034 19.0211 0
      vertex -8.51558 18.0965 0
    endloop
  endfacet
  facet normal 0.904826 0.425781 0
    outer loop
      vertex 18.5955 7.36249 2
      vertex 17.5261 9.63507 0
      vertex 17.5261 9.63507 2
    endloop
  endfacet
  facet normal 0.904826 0.425781 0
    outer loop
      vertex 17.5261 9.63507 0
      vertex 18.5955 7.36249 2
      vertex 18.5955 7.36249 0
    endloop
  endfacet
  facet normal 0.368129 0.929775 -0
    outer loop
      vertex 8.51558 18.0965 0
      vertex 6.18034 19.0211 2
      vertex 8.51558 18.0965 2
    endloop
  endfacet
  facet normal 0.368129 0.929775 0
    outer loop
      vertex 6.18034 19.0211 2
      vertex 8.51558 18.0965 0
      vertex 6.18034 19.0211 0
    endloop
  endfacet
  facet normal 0.587776 0.809024 -0
    outer loop
      vertex 12.7485 15.4103 0
      vertex 10.7165 16.8866 2
      vertex 12.7485 15.4103 2
    endloop
  endfacet
  facet normal 0.587776 0.809024 0
    outer loop
      vertex 10.7165 16.8866 2
      vertex 12.7485 15.4103 0
      vertex 10.7165 16.8866 0
    endloop
  endfacet
  facet normal -0.844327 0.535829 0
    outer loop
      vertex -17.5261 9.63507 0
      vertex -16.1803 11.7557 2
      vertex -16.1803 11.7557 0
    endloop
  endfacet
  facet normal -0.844327 0.535829 0
    outer loop
      vertex -16.1803 11.7557 2
      vertex -17.5261 9.63507 0
      vertex -17.5261 9.63507 2
    endloop
  endfacet
  facet normal -0.77052 0.637415 0
    outer loop
      vertex -16.1803 11.7557 0
      vertex -14.5794 13.6909 2
      vertex -14.5794 13.6909 0
    endloop
  endfacet
  facet normal -0.77052 0.637415 0
    outer loop
      vertex -14.5794 13.6909 2
      vertex -16.1803 11.7557 0
      vertex -16.1803 11.7557 2
    endloop
  endfacet
  facet normal -0.951049 0.309041 0
    outer loop
      vertex -19.3717 4.9738 0
      vertex -18.5955 7.36249 2
      vertex -18.5955 7.36249 0
    endloop
  endfacet
  facet normal -0.951049 0.309041 0
    outer loop
      vertex -18.5955 7.36249 2
      vertex -19.3717 4.9738 0
      vertex -19.3717 4.9738 2
    endloop
  endfacet
  facet normal -0.481733 0.876318 0
    outer loop
      vertex -8.51558 18.0965 0
      vertex -10.7165 16.8866 2
      vertex -8.51558 18.0965 2
    endloop
  endfacet
  facet normal -0.481733 0.876318 0
    outer loop
      vertex -10.7165 16.8866 2
      vertex -8.51558 18.0965 0
      vertex -10.7165 16.8866 0
    endloop
  endfacet
  facet normal -0.248685 0.968584 0
    outer loop
      vertex -3.74763 19.6457 0
      vertex -6.18034 19.0211 2
      vertex -3.74763 19.6457 2
    endloop
  endfacet
  facet normal -0.248685 0.968584 0
    outer loop
      vertex -6.18034 19.0211 2
      vertex -3.74763 19.6457 0
      vertex -6.18034 19.0211 0
    endloop
  endfacet
  facet normal 0.125337 -0.992114 0
    outer loop
      vertex 1.25581 -19.9605 0
      vertex 3.74763 -19.6457 2
      vertex 1.25581 -19.9605 2
    endloop
  endfacet
  facet normal 0.125337 -0.992114 0
    outer loop
      vertex 3.74763 -19.6457 2
      vertex 1.25581 -19.9605 0
      vertex 3.74763 -19.6457 0
    endloop
  endfacet
  facet normal 0.951049 0.309041 0
    outer loop
      vertex 19.3717 4.9738 2
      vertex 18.5955 7.36249 0
      vertex 18.5955 7.36249 2
    endloop
  endfacet
  facet normal 0.951049 0.309041 0
    outer loop
      vertex 18.5955 7.36249 0
      vertex 19.3717 4.9738 2
      vertex 19.3717 4.9738 0
    endloop
  endfacet
  facet normal 0.98229 0.187369 0
    outer loop
      vertex 19.8423 2.50666 2
      vertex 19.3717 4.9738 0
      vertex 19.3717 4.9738 2
    endloop
  endfacet
  facet normal 0.98229 0.187369 0
    outer loop
      vertex 19.3717 4.9738 0
      vertex 19.8423 2.50666 2
      vertex 19.8423 2.50666 0
    endloop
  endfacet
  facet normal 0.77052 0.637415 0
    outer loop
      vertex 16.1803 11.7557 2
      vertex 14.5794 13.6909 0
      vertex 14.5794 13.6909 2
    endloop
  endfacet
  facet normal 0.77052 0.637415 0
    outer loop
      vertex 14.5794 13.6909 0
      vertex 16.1803 11.7557 2
      vertex 16.1803 11.7557 0
    endloop
  endfacet
  facet normal 0.844327 0.535829 0
    outer loop
      vertex 17.5261 9.63507 2
      vertex 16.1803 11.7557 0
      vertex 16.1803 11.7557 2
    endloop
  endfacet
  facet normal 0.844327 0.535829 0
    outer loop
      vertex 16.1803 11.7557 0
      vertex 17.5261 9.63507 2
      vertex 17.5261 9.63507 0
    endloop
  endfacet
  facet normal 0.248685 0.968584 -0
    outer loop
      vertex 6.18034 19.0211 0
      vertex 3.74763 19.6457 2
      vertex 6.18034 19.0211 2
    endloop
  endfacet
  facet normal 0.248685 0.968584 0
    outer loop
      vertex 3.74763 19.6457 2
      vertex 6.18034 19.0211 0
      vertex 3.74763 19.6457 0
    endloop
  endfacet
  facet normal 0.125337 0.992114 -0
    outer loop
      vertex 3.74763 19.6457 0
      vertex 1.25581 19.9605 2
      vertex 3.74763 19.6457 2
    endloop
  endfacet
  facet normal 0.125337 0.992114 0
    outer loop
      vertex 1.25581 19.9605 2
      vertex 3.74763 19.6457 0
      vertex 1.25581 19.9605 0
    endloop
  endfacet
  facet normal 0.481733 0.876318 -0
    outer loop
      vertex 10.7165 16.8866 0
      vertex 8.51558 18.0965 2
      vertex 10.7165 16.8866 2
    endloop
  endfacet
  facet normal 0.481733 0.876318 0
    outer loop
      vertex 8.51558 18.0965 2
      vertex 10.7165 16.8866 0
      vertex 8.51558 18.0965 0
    endloop
  endfacet
  facet normal -0.904826 0.425781 0
    outer loop
      vertex -18.5955 7.36249 0
      vertex -17.5261 9.63507 2
      vertex -17.5261 9.63507 0
    endloop
  endfacet
  facet normal -0.904826 0.425781 0
    outer loop
      vertex -17.5261 9.63507 2
      vertex -18.5955 7.36249 0
      vertex -18.5955 7.36249 2
    endloop
  endfacet
  facet normal -0.98229 0.187369 0
    outer loop
      vertex -19.8423 2.50666 0
      vertex -19.3717 4.9738 2
      vertex -19.3717 4.9738 0
    endloop
  endfacet
  facet normal -0.98229 0.187369 0
    outer loop
      vertex -19.3717 4.9738 2
      vertex -19.8423 2.50666 0
      vertex -19.8423 2.50666 2
    endloop
  endfacet
  facet normal -0.125337 0.992114 0
    outer loop
      vertex -1.25581 19.9605 0
      vertex -3.74763 19.6457 2
      vertex -1.25581 19.9605 2
    endloop
  endfacet
  facet normal -0.125337 0.992114 0
    outer loop
      vertex -3.74763 19.6457 2
      vertex -1.25581 19.9605 0
      vertex -3.74763 19.6457 0
    endloop
  endfacet
  facet normal 0.77052 -0.637415 0
    outer loop
      vertex 14.5794 -13.6909 2
      vertex 16.1803 -11.7557 0
      vertex 16.1803 -11.7557 2
    endloop
  endfacet
  facet normal 0.77052 -0.637415 0
    outer loop
      vertex 16.1803 -11.7557 0
      vertex 14.5794 -13.6909 2
      vertex 14.5794 -13.6909 0
    endloop
  endfacet
  facet normal 0.951049 -0.309041 0
    outer loop
      vertex 18.5955 -7.36249 2
      vertex 19.3717 -4.9738 0
      vertex 19.3717 -4.9738 2
    endloop
  endfacet
  facet normal 0.951049 -0.309041 0
    outer loop
      vertex 19.3717 -4.9738 0
      vertex 18.5955 -7.36249 2
      vertex 18.5955 -7.36249 0
    endloop
  endfacet
  facet normal 0.98229 -0.187369 0
    outer loop
      vertex 19.3717 -4.9738 2
      vertex 19.8423 -2.50666 0
      vertex 19.8423 -2.50666 2
    endloop
  endfacet
  facet normal 0.98229 -0.187369 0
    outer loop
      vertex 19.8423 -2.50666 0
      vertex 19.3717 -4.9738 2
      vertex 19.3717 -4.9738 0
    endloop
  endfacet
  facet normal -0.368129 -0.929775 0
    outer loop
      vertex -8.51558 -18.0965 0
      vertex -6.18034 -19.0211 2
      vertex -8.51558 -18.0965 2
    endloop
  endfacet
  facet normal -0.368129 -0.929775 -0
    outer loop
      vertex -6.18034 -19.0211 2
      vertex -8.51558 -18.0965 0
      vertex -6.18034 -19.0211 0
    endloop
  endfacet
  facet normal 0 0 -1
    outer loop
      vertex 19.8423 -2.50666 0
      vertex 19.8423 2.50666 0
      vertex 20 0 0
    endloop
  endfacet
  facet normal 0 0 -1
    outer loop
      vertex 19.3717 -4.9738 0
      vertex 19.8423 2.50666 0
      vertex 19.8423 -2.50666 0
    endloop
  endfacet
  facet normal 0 0 -1
    outer loop
      vertex 19.3717 -4.9738 0
      vertex 19.3717 4.9738 0
      vertex 19.8423 2.50666 0
    endloop
  endfacet
  facet normal 0 0 -1
    outer loop
      vertex 18.5955 -7.36249 0
      vertex 19.3717 4.9738 0
      vertex 19.3717 -4.9738 0
    endloop
  endfacet
  facet normal 0 0 -1
    outer loop
      vertex 18.5955 -7.36249 0
      vertex 18.5955 7.36249 0
      vertex 19.3717 4.9738 0
    endloop
  endfacet
  facet normal 0 0 -1
    outer loop
      vertex 17.5261 -9.63507 0
      vertex 18.5955 7.36249 0
      vertex 18.5955 -7.36249 0
    endloop
  endfacet
  facet normal 0 0 -1
    outer loop
      vertex 17.5261 -9.63507 0
      vertex 17.5261 9.63507 0
      vertex 18.5955 7.36249 0
    endloop
  endfacet
  facet normal 0 0 -1
    outer loop
      vertex 16.1803 -11.7557 0
      vertex 17.5261 9.63507 0
      vertex 17.5261 -9.63507 0
    endloop
  endfacet
  facet normal 0 0 -1
    outer loop
      vertex 16.1803 -11.7557 0
      vertex 16.1803 11.7557 0
      vertex 17.5261 9.63507 0
    endloop
  endfacet
  facet normal 0 0 -1
    outer loop
      vertex 14.5794 -13.6909 0
      vertex 16.1803 11.7557 0
      vertex 16.1803 -11.7557 0
    endloop
  endfacet
  facet normal 0 0 -1
    outer loop
      vertex 14.5794 -13.6909 0
      vertex 14.5794 13.6909 0
      vertex 16.1803 11.7557 0
    endloop
  endfacet
  facet normal 0 0 -1
    outer loop
      vertex 12.7485 -15.4103 0
      vertex 14.5794 13.6909 0
      vertex 14.5794 -13.6909 0
    endloop
  endfacet
  facet normal 0 0 -1
    outer loop
      vertex 12.7485 -15.4103 0
      vertex 12.7485 15.4103 0
      vertex 14.5794 13.6909 0
    endloop
  endfacet
  facet normal 0 0 -1
    outer loop
      vertex 10.7165 -16.8866 0
      vertex 12.7485 15.4103 0
      vertex 12.7485 -15.4103 0
    endloop
  endfacet
  facet normal 0 0 -1
    outer loop
      vertex 10.7165 -16.8866 0
      vertex 10.7165 16.8866 0
      vertex 12.7485 15.4103 0
    endloop
  endfacet
  facet normal 0 0 -1
    outer loop
      vertex 8.51558 -18.0965 0
      vertex 10.7165 16.8866 0
      vertex 10.7165 -16.8866 0
    endloop
  endfacet
  facet normal 0 0 -1
    outer loop
      vertex 8.51558 -18.0965 0
      vertex 8.51558 18.0965 0
      vertex 10.7165 16.8866 0
    endloop
  endfacet
  facet normal 0 0 -1
    outer loop
      vertex 6.18034 -19.0211 0
      vertex 8.51558 18.0965 0
      vertex 8.51558 -18.0965 0
    endloop
  endfacet
  facet normal 0 0 -1
    outer loop
      vertex 6.18034 -19.0211 0
      vertex 6.18034 19.0211 0
      vertex 8.51558 18.0965 0
    endloop
  endfacet
  facet normal 0 0 -1
    outer loop
      vertex 3.74763 -19.6457 0
      vertex 6.18034 19.0211 0
      vertex 6.18034 -19.0211 0
    endloop
  endfacet
  facet normal 0 0 -1
    outer loop
      vertex 3.74763 -19.6457 0
      vertex 3.74763 19.6457 0
      vertex 6.18034 19.0211 0
    endloop
  endfacet
  facet normal 0 0 -1
    outer loop
      vertex 1.25581 -19.9605 0
      vertex 3.74763 19.6457 0
      vertex 3.74763 -19.6457 0
    endloop
  endfacet
  facet normal 0 0 -1
    outer loop
      vertex 1.25581 -19.9605 0
      vertex 1.25581 19.9605 0
      vertex 3.74763 19.6457 0
    endloop
  endfacet
  facet normal 0 0 -1
    outer loop
      vertex -1.25581 -19.9605 0
      vertex 1.25581 19.9605 0
      vertex 1.25581 -19.9605 0
    endloop
  endfacet
  facet normal 0 0 -1
    outer loop
      vertex -1.25581 -19.9605 0
      vertex -1.25581 19.9605 0
      vertex 1.25581 19.9605 0
    endloop
  endfacet
  facet normal 0 0 -1
    outer loop
      vertex -3.74763 -19.6457 0
      vertex -1.25581 19.9605 0
      vertex -1.25581 -19.9605 0
    endloop
  endfacet
  facet normal 0 0 -1
    outer loop
      vertex -3.74763 -19.6457 0
      vertex -3.74763 19.6457 0
      vertex -1.25581 19.9605 0
    endloop
  endfacet
  facet normal 0 0 -1
    outer loop
      vertex -6.18034 -19.0211 0
      vertex -3.74763 19.6457 0
      vertex -3.74763 -19.6457 0
    endloop
  endfacet
  facet normal 0 0 -1
    outer loop
      vertex -6.18034 -19.0211 0
      vertex -6.18034 19.0211 0
      vertex -3.74763 19.6457 0
    endloop
  endfacet
  facet normal 0 0 -1
    outer loop
      vertex -8.51558 -18.0965 0
      vertex -6.18034 19.0211 0
      vertex -6.18034 -19.0211 0
    endloop
  endfacet
  facet normal 0 0 -1
    outer loop
      vertex -8.51558 -18.0965 0
      vertex -8.51558 18.0965 0
      vertex -6.18034 19.0211 0
    endloop
  endfacet
  facet normal 0 0 -1
    outer loop
      vertex -10.7165 -16.8866 0
      vertex -8.51558 18.0965 0
      vertex -8.51558 -18.0965 0
    endloop
  endfacet
  facet normal 0 0 -1
    outer loop
      vertex -10.7165 -16.8866 0
      vertex -10.7165 16.8866 0
      vertex -8.51558 18.0965 0
    endloop
  endfacet
  facet normal 0 0 -1
    outer loop
      vertex -12.7485 -15.4103 0
      vertex -10.7165 16.8866 0
      vertex -10.7165 -16.8866 0
    endloop
  endfacet
  facet normal 0 0 -1
    outer loop
      vertex -12.7485 -15.4103 0
      vertex -12.7485 15.4103 0
      vertex -10.7165 16.8866 0
    endloop
  endfacet
  facet normal 0 0 -1
    outer loop
      vertex -14.5794 -13.6909 0
      vertex -12.7485 15.4103 0
      vertex -12.7485 -15.4103 0
    endloop
  endfacet
  facet normal 0 0 -1
    outer loop
      vertex -14.5794 -13.6909 0
      vertex -14.5794 13.6909 0
      vertex -12.7485 15.4103 0
    endloop
  endfacet
  facet normal 0 0 -1
    outer loop
      vertex -16.1803 -11.7557 0
      vertex -14.5794 13.6909 0
      vertex -14.5794 -13.6909 0
    endloop
  endfacet
  facet normal 0 0 -1
    outer loop
      vertex -16.1803 -11.7557 0
      vertex -16.1803 11.7557 0
      vertex -14.5794 13.6909 0
    endloop
  endfacet
  facet normal 0 0 -1
    outer loop
      vertex -17.5261 -9.63507 0
      vertex -16.1803 11.7557 0
      vertex -16.1803 -11.7557 0
    endloop
  endfacet
  facet normal 0 0 -1
    outer loop
      vertex -17.5261 -9.63507 0
      vertex -17.5261 9.63507 0
      vertex -16.1803 11.7557 0
    endloop
  endfacet
  facet normal 0 0 -1
    outer loop
      vertex -18.5955 -7.36249 0
      vertex -17.5261 9.63507 0
      vertex -17.5261 -9.63507 0
    endloop
  endfacet
  facet normal 0 0 -1
    outer loop
      vertex -18.5955 -7.36249 0
      vertex -18.5955 7.36249 0
      vertex -17.5261 9.63507 0
    endloop
  endfacet
  facet normal 0 0 -1
    outer loop
      vertex -19.3717 -4.9738 0
      vertex -18.5955 7.36249 0
      vertex -18.5955 -7.36249 0
    endloop
  endfacet
  facet normal 0 0 -1
    outer loop
      vertex -19.3717 -4.9738 0
      vertex -19.3717 4.9738 0
      vertex -18.5955 7.36249 0
    endloop
  endfacet
  facet normal 0 0 -1
    outer loop
      vertex -19.8423 -2.50666 0
      vertex -19.3717 4.9738 0
      vertex -19.3717 -4.9738 0
    endloop
  endfacet
  facet normal 0 0 -1
    outer loop
      vertex -19.8423 -2.50666 0
      vertex -19.8423 2.50666 0
      vertex -19.3717 4.9738 0
    endloop
  endfacet
  facet normal 0 -0 -1
    outer loop
      vertex -19.8423 2.50666 0
      vertex -19.8423 -2.50666 0
      vertex -20 0 0
    endloop
  endfacet
  facet normal 0.368129 -0.929775 0
    outer loop
      vertex 6.18034 -19.0211 0
      vertex 8.51558 -18.0965 2
      vertex 6.18034 -19.0211 2
    endloop
  endfacet
  facet normal 0.368129 -0.929775 0
    outer loop
      vertex 8.51558 -18.0965 2
      vertex 6.18034 -19.0211 0
      vertex 8.51558 -18.0965 0
    endloop
  endfacet
  facet normal -0.587776 0.809024 0
    outer loop
      vertex -10.7165 16.8866 0
      vertex -12.7485 15.4103 2
      vertex -10.7165 16.8866 2
    endloop
  endfacet
  facet normal -0.587776 0.809024 0
    outer loop
      vertex -12.7485 15.4103 2
      vertex -10.7165 16.8866 0
      vertex -12.7485 15.4103 0
    endloop
  endfacet
  facet normal 0.481733 -0.876318 0
    outer loop
      vertex 8.51558 -18.0965 0
      vertex 10.7165 -16.8866 2
      vertex 8.51558 -18.0965 2
    endloop
  endfacet
  facet normal 0.481733 -0.876318 0
    outer loop
      vertex 10.7165 -16.8866 2
      vertex 8.51558 -18.0965 0
      vertex 10.7165 -16.8866 0
    endloop
  endfacet
  facet normal 0.844327 -0.535829 0
    outer loop
      vertex 16.1803 -11.7557 2
      vertex 17.5261 -9.63507 0
      vertex 17.5261 -9.63507 2
    endloop
  endfacet
  facet normal 0.844327 -0.535829 0
    outer loop
      vertex 17.5261 -9.63507 0
      vertex 16.1803 -11.7557 2
      vertex 16.1803 -11.7557 0
    endloop
  endfacet
  facet normal 0.998027 -0.0627883 0
    outer loop
      vertex 19.8423 -2.50666 2
      vertex 20 0 0
      vertex 20 0 2
    endloop
  endfacet
  facet normal 0.998027 -0.0627883 0
    outer loop
      vertex 20 0 0
      vertex 19.8423 -2.50666 2
      vertex 19.8423 -2.50666 0
    endloop
  endfacet
  facet normal -0.77052 -0.637415 0
    outer loop
      vertex -14.5794 -13.6909 0
      vertex -16.1803 -11.7557 2
      vertex -16.1803 -11.7557 0
    endloop
  endfacet
  facet normal -0.77052 -0.637415 0
    outer loop
      vertex -16.1803 -11.7557 2
      vertex -14.5794 -13.6909 0
      vertex -14.5794 -13.6909 2
    endloop
  endfacet
  facet normal -0.904826 -0.425781 0
    outer loop
      vertex -17.5261 -9.63507 0
      vertex -18.5955 -7.36249 2
      vertex -18.5955 -7.36249 0
    endloop
  endfacet
  facet normal -0.904826 -0.425781 0
    outer loop
      vertex -18.5955 -7.36249 2
      vertex -17.5261 -9.63507 0
      vertex -17.5261 -9.63507 2
    endloop
  endfacet
  facet normal -0.951049 -0.309041 0
    outer loop
      vertex -18.5955 -7.36249 0
      vertex -19.3717 -4.9738 2
      vertex -19.3717 -4.9738 0
    endloop
  endfacet
  facet normal -0.951049 -0.309041 0
    outer loop
      vertex -19.3717 -4.9738 2
      vertex -18.5955 -7.36249 0
      vertex -18.5955 -7.36249 2
    endloop
  endfacet
  facet normal 0.248685 -0.968584 0
    outer loop
      vertex 3.74763 -19.6457 0
      vertex 6.18034 -19.0211 2
      vertex 3.74763 -19.6457 2
    endloop
  endfacet
  facet normal 0.248685 -0.968584 0
    outer loop
      vertex 6.18034 -19.0211 2
      vertex 3.74763 -19.6457 0
      vertex 6.18034 -19.0211 0
    endloop
  endfacet
  facet normal 0.684562 -0.728955 0
    outer loop
      vertex 12.7485 -15.4103 0
      vertex 14.5794 -13.6909 2
      vertex 12.7485 -15.4103 2
    endloop
  endfacet
  facet normal 0.684562 -0.728955 0
    outer loop
      vertex 14.5794 -13.6909 2
      vertex 12.7485 -15.4103 0
      vertex 14.5794 -13.6909 0
    endloop
  endfacet
  facet normal 0.587776 -0.809024 0
    outer loop
      vertex 10.7165 -16.8866 0
      vertex 12.7485 -15.4103 2
      vertex 10.7165 -16.8866 2
    endloop
  endfacet
  facet normal 0.587776 -0.809024 0
    outer loop
      vertex 12.7485 -15.4103 2
      vertex 10.7165 -16.8866 0
      vertex 12.7485 -15.4103 0
    endloop
  endfacet
  facet normal 0.904826 -0.425781 0
    outer loop
      vertex 17.5261 -9.63507 2
      vertex 18.5955 -7.36249 0
      vertex 18.5955 -7.36249 2
    endloop
  endfacet
  facet normal 0.904826 -0.425781 0
    outer loop
      vertex 18.5955 -7.36249 0
      vertex 17.5261 -9.63507 2
      vertex 17.5261 -9.63507 0
    endloop
  endfacet
  facet normal -0.125337 -0.992114 0
    outer loop
      vertex -3.74763 -19.6457 0
      vertex -1.25581 -19.9605 2
      vertex -3.74763 -19.6457 2
    endloop
  endfacet
  facet normal -0.125337 -0.992114 -0
    outer loop
      vertex -1.25581 -19.9605 2
      vertex -3.74763 -19.6457 0
      vertex -1.25581 -19.9605 0
    endloop
  endfacet
  facet normal -0.684562 -0.728955 0
    outer loop
      vertex -14.5794 -13.6909 0
      vertex -12.7485 -15.4103 2
      vertex -14.5794 -13.6909 2
    endloop
  endfacet
  facet normal -0.684562 -0.728955 -0
    outer loop
      vertex -12.7485 -15.4103 2
      vertex -14.5794 -13.6909 0
      vertex -12.7485 -15.4103 0
    endloop
  endfacet
  facet normal -0.481733 -0.876318 0
    outer loop
      vertex -10.7165 -16.8866 0
      vertex -8.51558 -18.0965 2
      vertex -10.7165 -16.8866 2
    endloop
  endfacet
  facet normal -0.481733 -0.876318 -0
    outer loop
      vertex -8.51558 -18.0965 2
      vertex -10.7165 -16.8866 0
      vertex -8.51558 -18.0965 0
    endloop
  endfacet
  facet normal -0.248685 -0.968584 0
    outer loop
      vertex -6.18034 -19.0211 0
      vertex -3.74763 -19.6457 2
      vertex -6.18034 -19.0211 2
    endloop
  endfacet
  facet normal -0.248685 -0.968584 -0
    outer loop
      vertex -3.74763 -19.6457 2
      vertex -6.18034 -19.0211 0
      vertex -3.74763 -19.6457 0
    endloop
  endfacet
  facet normal -0.844327 -0.535829 0
    outer loop
      vertex -16.1803 -11.7557 0
      vertex -17.5261 -9.63507 2
      vertex -17.5261 -9.63507 0
    endloop
  endfacet
  facet normal -0.844327 -0.535829 0
    outer loop
      vertex -17.5261 -9.63507 2
      vertex -16.1803 -11.7557 0
      vertex -16.1803 -11.7557 2
    endloop
  endfacet
  facet normal -0.98229 -0.187369 0
    outer loop
      vertex -19.3717 -4.9738 0
      vertex -19.8423 -2.50666 2
      vertex -19.8423 -2.50666 0
    endloop
  endfacet
  facet normal -0.98229 -0.187369 0
    outer loop
      vertex -19.8423 -2.50666 2
      vertex -19.3717 -4.9738 0
      vertex -19.3717 -4.9738 2
    endloop
  endfacet
  facet normal -0.998027 -0.0627883 0
    outer loop
      vertex -19.8423 -2.50666 0
      vertex -20 0 2
      vertex -20 0 0
    endloop
  endfacet
  facet normal -0.998027 -0.0627883 0
    outer loop
      vertex -20 0 2
      vertex -19.8423 -2.50666 0
      vertex -19.8423 -2.50666 2
    endloop
  endfacet
  facet normal -0.587776 -0.809024 0
    outer loop
      vertex -12.7485 -15.4103 0
      vertex -10.7165 -16.8866 2
      vertex -12.7485 -15.4103 2
    endloop
  endfacet
  facet normal -0.587776 -0.809024 -0
    outer loop
      vertex -10.7165 -16.8866 2
      vertex -12.7485 -15.4103 0
      vertex -10.7165 -16.8866 0
    endloop
  endfacet
endsolid OpenSCAD_Model
