solid OpenSCAD_Model
  facet normal -1 0 0
    outer loop
      vertex -6.5 -16 -5
      vertex -6.5 16 5
      vertex -6.5 16 -5
    endloop
  endfacet
  facet normal -1 -0 0
    outer loop
      vertex -6.5 16 5
      vertex -6.5 -16 -5
      vertex -6.5 -16 5
    endloop
  endfacet
  facet normal 0 0 1
    outer loop
      vertex 6.5 16 5
      vertex 5.5 15 5
      vertex 6.5 12.5 5
    endloop
  endfacet
  facet normal 0 0 1
    outer loop
      vertex 6.5 16 5
      vertex -5.5 15 5
      vertex 5.5 15 5
    endloop
  endfacet
  facet normal 0 0 1
    outer loop
      vertex -5.5 15 5
      vertex -6.5 16 5
      vertex -5.5 -15 5
    endloop
  endfacet
  facet normal -0 0 1
    outer loop
      vertex -6.5 16 5
      vertex -5.5 15 5
      vertex 6.5 16 5
    endloop
  endfacet
  facet normal 0 0 1
    outer loop
      vertex 6.5 12.5 5
      vertex 5.5 15 5
      vertex 5.5 12.5 5
    endloop
  endfacet
  facet normal 0 0 1
    outer loop
      vertex 5.5 -15 5
      vertex 6.5 -12.5 5
      vertex 5.5 -12.5 5
    endloop
  endfacet
  facet normal 0 0 1
    outer loop
      vertex 6.5 -12.5 5
      vertex 5.5 -15 5
      vertex 6.5 -16 5
    endloop
  endfacet
  facet normal -0 0 1
    outer loop
      vertex -5.5 -15 5
      vertex 6.5 -16 5
      vertex 5.5 -15 5
    endloop
  endfacet
  facet normal 0 0 1
    outer loop
      vertex -5.5 -15 5
      vertex -6.5 -16 5
      vertex 6.5 -16 5
    endloop
  endfacet
  facet normal 0 0 1
    outer loop
      vertex -6.5 -16 5
      vertex -5.5 -15 5
      vertex -6.5 16 5
    endloop
  endfacet
  facet normal 1 -0 0
    outer loop
      vertex 6.5 -16 5
      vertex 6.5 -12.5 -5
      vertex 6.5 -12.5 5
    endloop
  endfacet
  facet normal 1 0 0
    outer loop
      vertex 6.5 -12.5 -5
      vertex 6.5 -16 5
      vertex 6.5 -16 -5
    endloop
  endfacet
  facet normal 1 -0 0
    outer loop
      vertex 6.5 12.5 5
      vertex 6.5 16 -5
      vertex 6.5 16 5
    endloop
  endfacet
  facet normal 1 0 0
    outer loop
      vertex 6.5 16 -5
      vertex 6.5 12.5 5
      vertex 6.5 12.5 -5
    endloop
  endfacet
  facet normal 0 1 -0
    outer loop
      vertex 6.5 16 -5
      vertex -6.5 16 5
      vertex 6.5 16 5
    endloop
  endfacet
  facet normal 0 1 0
    outer loop
      vertex -6.5 16 5
      vertex 6.5 16 -5
      vertex -6.5 16 -5
    endloop
  endfacet
  facet normal 0 0 -1
    outer loop
      vertex 6.5 -16 -5
      vertex 5.5 -15 -5
      vertex 6.5 -12.5 -5
    endloop
  endfacet
  facet normal 0 0 -1
    outer loop
      vertex 6.5 -16 -5
      vertex -5.5 -15 -5
      vertex 5.5 -15 -5
    endloop
  endfacet
  facet normal -0 0 -1
    outer loop
      vertex -5.5 -15 -5
      vertex -6.5 -16 -5
      vertex -5.5 15 -5
    endloop
  endfacet
  facet normal 0 0 -1
    outer loop
      vertex -6.5 -16 -5
      vertex -5.5 -15 -5
      vertex 6.5 -16 -5
    endloop
  endfacet
  facet normal -0 0 -1
    outer loop
      vertex 6.5 -12.5 -5
      vertex 5.5 -15 -5
      vertex 5.5 -12.5 -5
    endloop
  endfacet
  facet normal 0 0 -1
    outer loop
      vertex 5.5 15 -5
      vertex 6.5 12.5 -5
      vertex 5.5 12.5 -5
    endloop
  endfacet
  facet normal 0 0 -1
    outer loop
      vertex 6.5 12.5 -5
      vertex 5.5 15 -5
      vertex 6.5 16 -5
    endloop
  endfacet
  facet normal 0 0 -1
    outer loop
      vertex -5.5 15 -5
      vertex 6.5 16 -5
      vertex 5.5 15 -5
    endloop
  endfacet
  facet normal 0 0 -1
    outer loop
      vertex -5.5 15 -5
      vertex -6.5 16 -5
      vertex 6.5 16 -5
    endloop
  endfacet
  facet normal 0 0 -1
    outer loop
      vertex -6.5 16 -5
      vertex -5.5 15 -5
      vertex -6.5 -16 -5
    endloop
  endfacet
  facet normal 0 -1 0
    outer loop
      vertex -6.5 -16 -5
      vertex 6.5 -16 5
      vertex -6.5 -16 5
    endloop
  endfacet
  facet normal 0 -1 -0
    outer loop
      vertex 6.5 -16 5
      vertex -6.5 -16 -5
      vertex 6.5 -16 -5
    endloop
  endfacet
  facet normal 1 -0 0
    outer loop
      vertex -5.5 -15 5
      vertex -5.5 15 -5
      vertex -5.5 15 5
    endloop
  endfacet
  facet normal 1 0 0
    outer loop
      vertex -5.5 15 -5
      vertex -5.5 -15 5
      vertex -5.5 -15 -5
    endloop
  endfacet
  facet normal -1 0 0
    outer loop
      vertex 5.5 -15 -5
      vertex 5.5 -12.5 5
      vertex 5.5 -12.5 -5
    endloop
  endfacet
  facet normal -1 -0 0
    outer loop
      vertex 5.5 -12.5 5
      vertex 5.5 -15 -5
      vertex 5.5 -15 5
    endloop
  endfacet
  facet normal -1 0 0
    outer loop
      vertex 5.5 12.5 -5
      vertex 5.5 15 5
      vertex 5.5 15 -5
    endloop
  endfacet
  facet normal -1 -0 0
    outer loop
      vertex 5.5 15 5
      vertex 5.5 12.5 -5
      vertex 5.5 12.5 5
    endloop
  endfacet
  facet normal 0 1 -0
    outer loop
      vertex 5.5 -15 -5
      vertex -5.5 -15 5
      vertex 5.5 -15 5
    endloop
  endfacet
  facet normal 0 1 0
    outer loop
      vertex -5.5 -15 5
      vertex 5.5 -15 -5
      vertex -5.5 -15 -5
    endloop
  endfacet
  facet normal 0 -1 0
    outer loop
      vertex -5.5 15 -5
      vertex 5.5 15 5
      vertex -5.5 15 5
    endloop
  endfacet
  facet normal 0 -1 -0
    outer loop
      vertex 5.5 15 5
      vertex -5.5 15 -5
      vertex 5.5 15 -5
    endloop
  endfacet
  facet normal 0 -1 0
    outer loop
      vertex 5.5 12.5 -5
      vertex 6.5 12.5 5
      vertex 5.5 12.5 5
    endloop
  endfacet
  facet normal 0 -1 -0
    outer loop
      vertex 6.5 12.5 5
      vertex 5.5 12.5 -5
      vertex 6.5 12.5 -5
    endloop
  endfacet
  facet normal 0 1 -0
    outer loop
      vertex 6.5 -12.5 -5
      vertex 5.5 -12.5 5
      vertex 6.5 -12.5 5
    endloop
  endfacet
  facet normal 0 1 0
    outer loop
      vertex 5.5 -12.5 5
      vertex 6.5 -12.5 -5
      vertex 5.5 -12.5 -5
    endloop
  endfacet
endsolid OpenSCAD_Model
